ply
format ascii 1.0
element vertex 2161
property float x
property float y
property float z
property uchar red
property uchar green
property uchar blue
end_header
-1.22710 -0.09337 5.74587 182 245 190
-1.22705 -0.03475 5.77949 231 243 161
-1.23524 0.08660 5.85586 255 229 170
-1.18767 -0.13157 5.69436 154 190 212
-1.20032 -0.01029 5.77078 155 43 99
-1.14396 -0.40610 5.50632 115 244 190
-1.12603 -0.35598 5.52160 99 221 198
-1.15114 -0.15323 5.65061 102 222 213
-1.15636 -0.10572 5.68297 171 246 242
-1.19285 0.16470 5.90344 240 252 114
-1.10488 -0.42382 5.47154 190 72 70
-1.17706 0.16687 5.86213 239 250 109
-1.07546 -0.52130 5.37899 150 148 198
-1.08706 -0.39634 5.46557 105 223 209
-1.13238 -0.06168 5.69396 155 224 229
-1.12177 -0.09927 5.66488 119 204 241
-1.08400 -0.31581 5.51350 111 217 177
-1.08400 -0.31581 5.51350 111 217 177
-1.05185 -0.56032 5.35050 156 221 253
-1.07565 -0.38986 5.47597 106 215 220
-1.15905 0.39683 5.96830 213 177 141
-1.16144 0.42979 5.98485 231 213 127
-1.14228 0.27997 5.89654 236 218 154
-1.13470 0.37527 5.93803 227 214 144
-1.13470 0.37527 5.93803 227 214 144
-1.10561 0.22292 5.83086 255 217 158
-1.00927 -0.54648 5.33195 92 175 251
-1.03962 -0.25561 5.51628 127 231 196
-1.04368 -0.10452 5.60203 135 214 229
-0.99824 -0.47917 5.38165 119 201 255
-1.08278 0.27637 5.85061 245 173 133
-1.08278 0.27637 5.85061 245 173 133
-1.09980 0.45535 5.97195 236 210 113
-1.05719 0.09588 5.78237 75 154 161
-1.04988 0.15712 5.76483 181 195 195
-1.01095 -0.12373 5.58430 178 248 255
-1.04734 0.19926 5.78588 240 219 162
-1.03332 0.09579 5.71638 89 164 167
-0.98458 -0.30403 5.45518 181 205 209
-0.98523 -0.65180 5.46043 212 173 98
-1.06404 0.38986 5.90219 242 233 142
-0.97674 -0.36944 5.41801 172 200 221
-1.00742 -0.02979 5.61144 215 205 204
-1.05288 0.34922 5.87006 215 191 153
-1.08403 0.65385 6.06595 221 196 132
-1.08403 0.65385 6.06595 221 196 132
-0.98594 -0.17179 5.52633 180 242 255
-1.03557 0.26638 5.81457 246 215 168
-0.99459 -0.37589 5.58967 155 200 223
-0.94003 -0.52430 5.30087 59 212 254
-0.98770 -0.14457 5.57631 174 199 240
-1.07923 0.70690 6.10332 164 207 153
-0.97876 -0.69416 5.56409 219 180 101
-1.04971 0.55098 5.98396 236 188 112
-0.93940 -0.40666 5.36753 134 205 249
-0.93940 -0.40666 5.36753 134 205 249
-1.01886 0.32831 5.83584 255 232 142
-0.93368 -0.36748 5.38168 120 176 235
-1.01540 0.37953 5.86001 238 211 108
-0.94421 -0.24696 5.45989 160 214 224
-1.02668 0.50585 5.94605 199 206 138
-0.99261 0.21311 5.75456 221 233 157
-0.99261 0.21311 5.75456 221 233 157
-1.03183 0.62086 5.98538 202 203 127
-0.96716 -0.00613 5.61212 207 245 234
-0.99351 0.24951 5.77522 209 184 120
-1.00191 0.35375 5.84895 252 224 101
-0.95811 0.06568 5.64164 150 174 220
-1.01333 0.58847 5.98697 139 157 133
-1.01465 0.67902 6.03985 162 149 96
-1.01465 0.67902 6.03985 162 149 96
-0.93653 0.04829 5.62899 185 216 234
-1.00302 0.82187 6.08517 181 159 195
-0.92238 0.20473 5.70983 221 206 147
-0.93123 0.35538 5.80437 112 162 93
-0.93123 0.35538 5.80437 112 162 93
-0.84360 -0.47142 5.25984 7 166 169
-0.88785 -0.06128 5.55262 1 144 249
-0.86472 -0.24978 5.40918 127 201 250
-0.93112 0.41811 5.83275 112 162 93
-0.96829 0.78935 6.07045 103 77 116
-0.96829 0.78935 6.07045 103 77 116
-0.93961 0.55778 5.91896 169 215 166
-0.94125 0.59914 5.94717 122 185 154
-0.93729 0.62998 5.95593 130 225 141
-0.95624 0.90287 6.12853 236 223 255
-0.93665 0.82788 6.06437 230 217 234
-0.94420 0.93641 6.12997 138 67 189
-0.91829 0.75341 5.99547 112 171 211
-0.86117 0.23673 5.67390 228 203 136
-0.79443 -0.42515 5.24740 152 92 240
-0.79443 -0.42515 5.24740 152 92 240
-0.92099 0.90155 6.10050 246 244 249
-0.79124 -0.45940 5.24395 133 254 249
-0.84798 0.14914 5.62455 11 102 191
-0.91529 0.89969 6.08279 254 250 255
-0.90432 0.78414 6.01280 101 76 116
-0.86401 0.33032 5.74748 251 255 245
-0.92200 1.00157 6.15809 143 65 227
-0.82630 0.01762 5.53587 148 169 216
-0.77834 -0.54940 5.24424 197 79 243
-0.82161 0.06290 5.55749 193 206 197
-0.88234 0.74104 5.98601 136 97 144
-0.76433 -0.51344 5.19762 163 245 255
-0.77208 -0.41298 5.25560 126 239 255
-0.88921 0.87490 6.07160 125 83 131
-0.85730 0.54879 5.85379 167 169 148
-0.86966 0.66717 5.96494 180 197 189
-0.80958 0.27367 5.67312 193 207 128
-0.74234 -0.45837 5.20634 142 204 253
-0.75486 -0.33914 5.29528 110 222 242
-0.84501 0.69820 5.93874 155 142 152
-0.82834 0.61895 5.85575 209 164 161
-0.83861 0.73094 5.94745 183 145 184
-0.85595 0.95498 6.08535 168 63 226
-0.74818 -0.23101 5.34659 179 167 231
-0.77059 0.07017 5.52121 201 207 147
-0.75101 -0.15388 5.38987 197 165 202
-0.80367 0.52445 5.80315 177 216 125
-0.84413 1.01567 6.10159 188 71 203
-0.75852 0.04293 5.50975 251 255 236
-0.80381 0.61670 5.85356 167 72 68
-0.71334 -0.44537 5.20527 168 246 255
-0.82419 0.99426 6.09862 219 113 211
-0.75277 0.16283 5.57430 187 206 174
-0.73090 -0.06397 5.42157 193 146 188
-0.71583 -0.23978 5.31663 181 148 203
-0.80822 -0.88599 6.00578 122 176 240
-0.73997 -0.67676 5.50482 186 47 42
-0.76795 0.39765 5.71327 241 255 220
-0.79557 0.73781 5.92598 149 140 169
-0.75281 0.23858 5.61049 154 182 168
-0.73415 0.03099 5.47849 204 218 156
-0.68023 -0.49531 5.09330 150 189 255
-0.75353 0.29204 5.64512 154 58 194
-0.71661 -0.10880 5.37327 193 136 207
-0.70002 -0.29627 5.26744 123 172 228
-0.70871 -0.16264 5.34823 171 132 211
-0.70871 -0.16264 5.34823 171 132 211
-0.71735 -0.01515 5.44494 185 166 172
-0.69786 -0.20549 5.31983 249 250 255
-0.76850 0.68282 5.88286 177 176 158
-0.79125 0.95959 6.05608 226 88 227
-0.72474 0.22063 5.57915 128 163 157
-0.72474 0.22063 5.57915 128 163 157
-0.70960 0.04835 5.46427 255 254 243
-0.73834 0.40406 5.69400 107 244 78
-0.66525 -0.39950 5.18594 132 224 249
-0.75567 0.72672 5.89595 188 187 185
-0.72931 0.42601 5.71422 76 230 98
-0.66396 -0.56443 5.22641 195 184 216
-0.76732 0.99903 6.04868 229 93 219
-0.66246 -0.31073 5.23582 126 202 255
-0.69885 0.17271 5.53864 159 168 185
-0.75792 0.91372 6.00769 222 129 200
-0.72523 0.55844 5.78399 187 180 172
-0.67136 -0.08177 5.37380 205 165 235
-0.73161 0.70850 5.87241 172 151 210
-0.65724 -0.22314 5.28792 153 167 193
-0.76024 1.12251 6.12599 252 109 188
-0.66851 -0.04060 5.40194 208 141 195
-0.73574 0.86265 5.94793 127 118 207
-0.71425 0.67291 5.81493 177 191 132
-0.63386 -0.38565 5.17796 131 154 250
-0.67219 0.15447 5.51083 213 187 196
-0.62333 -0.46984 5.11520 177 183 255
-0.62333 -0.46984 5.11520 177 183 255
-0.66150 0.02307 5.43198 252 230 232
-0.64736 -0.15990 5.31701 193 200 242
-0.69043 0.42625 5.68422 108 237 145
-0.65152 -0.06404 5.36679 248 240 255
-0.65152 -0.06404 5.36679 248 240 255
-0.66172 0.06590 5.45351 255 250 234
-0.63490 -0.28140 5.23692 116 168 216
-0.63664 -0.25713 5.25451 245 254 255
-0.69922 0.61778 5.78738 210 26 236
-0.71440 0.82285 5.95503 189 171 223
-0.66939 0.30642 5.59727 92 192 166
-0.69764 0.71604 5.85344 194 194 218
-0.71519 0.98979 6.01731 237 171 219
-0.61562 -0.35744 5.18463 139 202 255
-0.64059 0.00103 5.39495 123 23 95
-0.60978 -0.42556 5.13817 116 134 234
-0.62889 -0.13444 5.31518 255 254 255
-0.67654 0.52946 5.72073 110 174 160
-0.67654 0.52946 5.72073 110 174 160
-0.64255 0.08693 5.45177 192 161 130
-0.61216 -0.30077 5.21132 165 193 241
-0.61410 -0.23746 5.24461 187 173 224
-0.64256 0.16082 5.50377 219 142 178
-0.64256 0.16082 5.50377 219 142 178
-0.70343 1.02675 6.02744 255 240 255
-0.70343 1.02675 6.02744 255 240 255
-0.70746 1.10017 6.08197 250 91 220
-0.61622 -0.08962 5.33819 192 153 236
-0.62844 -0.65143 5.45887 132 86 236
-0.62070 -0.01090 5.39251 254 230 252
-0.66032 0.56885 5.74239 154 188 163
-0.61821 0.01113 5.39298 123 42 98
-0.61821 0.01113 5.39298 123 42 98
-0.62010 0.10294 5.43896 255 247 238
-0.67046 0.85491 5.90342 241 182 212
-0.65838 0.70802 5.81588 153 173 206
-0.66181 0.74651 5.84894 194 202 223
-0.61668 0.13028 5.46763 207 156 125
-0.60116 -0.03350 5.34527 162 109 181
-0.58534 -0.22426 5.22137 255 250 255
-0.60432 0.05500 5.40328 253 254 248
-0.62668 0.38193 5.61475 134 221 166
-0.61257 0.23334 5.52150 115 182 147
-0.65494 -0.86828 5.91457 164 200 232
-0.65613 1.00328 5.97651 242 107 202
-0.58782 0.00148 5.37511 255 248 255
-0.63182 -0.80249 5.78275 124 157 140
-0.56974 -0.25796 5.21529 166 137 219
-0.66111 1.15054 6.06982 217 62 215
-0.60564 0.33914 5.57544 82 184 160
-0.57525 -0.11556 5.29694 255 253 254
-0.62391 0.85044 5.88440 255 164 231
-0.55041 -0.20972 5.20912 174 103 209
-0.62567 0.97588 5.94933 255 229 255
-0.62567 0.97588 5.94933 255 229 255
-0.54305 -0.24268 5.20926 255 239 255
-0.58128 0.43755 5.61464 142 255 185
-0.61344 1.08397 5.99405 222 77 216
-0.53985 -0.08204 5.30630 146 103 221
-0.59507 0.83890 5.85586 231 128 199
-0.59507 0.83890 5.85586 231 128 199
-0.60582 1.04525 5.96679 255 247 255
-0.60379 1.04444 5.95943 255 247 255
-0.51231 -0.42799 5.06115 69 69 215
-0.53755 -0.02904 5.31747 152 83 192
-0.55029 0.26851 5.49561 108 176 129
-0.52388 -0.16929 5.23299 255 253 255
-0.56825 0.56051 5.67901 128 238 199
-0.57777 -0.80200 5.78016 144 194 121
-0.50625 -0.33402 5.10999 150 132 208
-0.51391 -0.23013 5.19026 247 245 255
-0.51391 -0.23013 5.19026 247 245 255
-0.51391 -0.23013 5.19026 247 245 255
-0.52811 0.00806 5.34560 255 237 255
-0.52811 0.00806 5.34560 255 237 255
-0.56365 0.62808 5.71857 149 184 188
-0.55178 0.51607 5.63000 121 211 123
-0.57807 -0.86420 5.91751 199 223 209
-0.58304 1.02857 5.96729 217 129 229
-0.50290 -0.25575 5.15504 148 140 225
-0.52357 0.14593 5.40287 168 150 128
-0.55635 0.73220 5.76149 183 174 165
-0.49816 -0.21237 5.19473 155 159 194
-0.56587 0.97293 5.91395 230 117 225
-0.50442 -0.05857 5.27548 176 140 210
-0.50814 0.07843 5.35851 255 253 255
-0.56269 1.00427 5.94328 236 115 244
-0.49326 -0.17184 5.22246 164 138 203
-0.47517 -0.41348 5.05755 108 129 234
-0.49647 0.02055 5.32776 255 251 253
-0.47539 -0.30354 5.12179 152 140 224
-0.52232 0.58147 5.65161 159 111 0
-0.46584 -0.34588 5.06349 122 183 167
-0.46437 -0.34525 5.05858 125 183 169
-0.52616 0.78255 5.77482 53 211 92
-0.48426 0.13799 5.37494 151 190 163
-0.47957 0.04029 5.32969 178 162 172
-0.49943 0.43184 5.55943 147 238 145
-0.47865 0.08627 5.34880 158 161 178
-0.53610 1.16166 6.00154 254 128 201
-0.46478 -0.14402 5.21181 148 148 222
-0.52268 1.11310 5.96629 250 90 224
-0.51641 1.05026 5.92585 217 102 231
-0.44641 -0.26775 5.12776 138 131 226
-0.49314 0.73641 5.70731 49 214 84
-0.45252 -0.01995 5.27530 201 109 234
-0.46581 0.32392 5.47419 116 169 187
-0.49887 1.00499 5.88195 207 107 242
-0.49666 0.96509 5.85670 255 247 255
-0.47316 0.55888 5.62097 141 196 193
-0.45079 0.14874 5.36463 109 155 171
-0.43065 -0.23799 5.12642 155 183 255
-0.43065 -0.23799 5.12642 155 183 255
-0.49224 1.07276 5.91261 237 134 226
-0.44396 0.11222 5.34834 142 216 225
-0.42861 -0.07025 5.22496 234 248 213
-0.46587 0.82218 5.77362 63 209 84
-0.48217 1.16623 5.99137 214 75 190
-0.40733 -0.32548 5.06682 121 186 166
-0.40878 -0.27373 5.08518 137 117 251
-0.44954 0.61471 5.63339 159 176 194
-0.43352 0.35766 5.46672 133 180 170
-0.45789 0.93007 5.81176 233 166 233
-0.42446 0.23440 5.39782 206 42 224
-0.43130 0.45500 5.52465 140 182 178
-0.41927 0.27228 5.40662 203 41 223
-0.39983 -0.52792 5.15843 193 171 255
-0.45829 1.18776 5.94469 195 112 202
-0.44787 0.94104 5.81340 248 181 235
-0.39640 -0.10078 5.18868 87 104 196
-0.38930 -0.22732 5.10688 132 111 250
-0.42183 0.54141 5.56690 125 133 196
-0.42183 0.54141 5.56690 125 133 196
-0.39399 0.03898 5.25002 239 155 253
-0.46579 -1.02483 6.26167 239 247 234
-0.40460 0.35530 5.45191 190 199 194
-0.42657 0.87889 5.76555 184 138 211
-0.37463 -0.25540 5.08328 187 146 255
-0.43589 1.13278 5.92071 210 129 222
-0.41573 0.70655 5.65942 167 108 200
-0.40526 0.48982 5.51821 144 158 203
-0.37566 -0.15037 5.14365 164 115 232
-0.39297 -0.63653 5.39803 145 137 246
-0.36971 -0.49768 5.09684 205 153 251
-0.42581 1.06795 5.88773 208 100 201
-0.41751 0.92052 5.79354 252 252 252
-0.37882 0.24794 5.38221 255 235 255
-0.37958 0.29001 5.40341 255 240 255
-0.39962 0.79116 5.70292 154 112 175
-0.35746 -0.19782 5.10359 183 133 254
-0.39549 0.85858 5.73507 184 169 198
-0.38341 0.56923 5.55719 234 249 10
-0.35005 -0.21382 5.08911 197 132 255
-0.36940 0.35407 5.42220 191 157 148
-0.36726 0.31611 5.39550 255 227 229
-0.39441 0.95194 5.80928 180 160 255
-0.34855 -0.01436 5.19429 68 93 38
-0.34855 -0.01436 5.19429 68 93 38
-0.35591 0.18601 5.32461 196 172 224
-0.34494 -0.09719 5.16505 139 167 204
-0.35633 0.21954 5.35466 197 46 211
-0.35718 0.27073 5.37370 185 58 199
-0.34945 0.09306 5.26461 192 142 255
-0.34895 0.14285 5.30008 147 116 236
-0.34895 0.14285 5.30008 147 116 236
-0.32036 -0.21071 5.07532 162 89 254
-0.32351 -0.11368 5.12728 141 130 196
-0.31832 -0.24914 5.05223 196 125 255
-0.33666 0.33229 5.38829 248 231 223
-0.35072 0.70244 5.61745 192 140 204
-0.36884 -0.87703 5.94374 251 157 171
-0.33171 0.28766 5.35379 252 251 255
-0.37644 -0.96201 6.10818 186 144 230
-0.34512 0.64560 5.60154 249 221 114
-0.35116 0.87748 5.71198 106 128 214
-0.34212 0.76821 5.64760 198 193 199
-0.34212 0.76821 5.64760 198 193 199
-0.33360 0.56419 5.52297 151 82 235
-0.34915 1.16503 5.87779 194 141 157
-0.34403 1.03118 5.80475 192 127 243
-0.34403 1.03118 5.80475 192 127 243
-0.33588 0.95680 5.75219 103 109 233
-0.32136 0.59499 5.51882 246 216 130
-0.32587 0.71912 5.60968 201 151 210
-0.34086 1.20666 5.89959 178 174 171
-0.29311 -0.18698 5.07371 179 127 255
-0.29564 -0.05613 5.12865 12 129 51
-0.29447 -0.09605 5.11621 172 173 201
-0.31590 0.53245 5.48981 178 124 212
-0.28166 -0.35859 4.96383 102 92 253
-0.30183 0.34715 5.37986 1 159 98
-0.32614 1.13681 5.84265 176 134 182
-0.28547 0.26696 5.34341 255 252 255
-0.30175 0.92750 5.71836 144 152 250
-0.29360 0.73334 5.60106 150 136 47
-0.27399 0.22778 5.28706 223 87 221
-0.25678 -0.30043 4.98193 137 34 225
-0.30067 1.19338 5.86582 151 123 161
-0.28223 0.59039 5.52041 67 123 74
-0.29426 1.14711 5.83780 180 166 192
-0.26770 0.29052 5.32977 78 141 132
-0.26746 0.32570 5.36551 234 249 246
-0.24527 -0.38205 4.92894 110 125 218
-0.25582 0.11596 5.20138 220 88 226
-0.25930 0.34532 5.35189 222 243 244
-0.27472 1.22414 5.86853 198 118 171
-0.25295 0.42509 5.40254 208 127 229
-0.26519 0.92260 5.69442 123 135 253
-0.26737 1.04355 5.76489 139 175 255
-0.26969 1.14855 5.83803 78 171 90
-0.25635 0.75667 5.59037 178 130 232
-0.23738 0.21286 5.25690 223 125 238
-0.23819 0.33279 5.34013 171 139 202
-0.22873 0.15667 5.22829 200 146 255
-0.25654 -0.89851 5.97423 120 194 171
-0.21790 -0.01512 5.11809 233 171 236
-0.21933 0.19502 5.24103 190 103 218
-0.21689 0.09365 5.18461 207 117 240
-0.23269 0.98294 5.70436 124 118 240
-0.19763 -0.48424 5.03711 212 253 213
-0.20459 0.28072 5.30208 195 117 227
-0.19006 -0.13932 5.03043 160 160 255
-0.18491 -0.39972 4.92502 76 57 136
-0.18588 -0.25913 4.96496 167 73 221
-0.18507 -0.18221 5.00263 127 95 255
-0.19112 0.14880 5.19719 188 117 237
-0.20747 1.08998 5.66094 58 206 96
-0.19584 0.42227 5.35847 227 86 255
-0.18813 0.19679 5.22586 226 152 227
-0.19597 0.63930 5.48138 231 92 253
-0.19784 0.76304 5.55552 163 96 211
-0.19784 0.76304 5.55552 163 96 211
-0.18120 0.37588 5.31925 166 51 243
-0.16751 -0.23586 4.96511 148 62 225
-0.19492 1.23943 5.82941 183 131 195
-0.16312 -0.20688 4.98214 165 119 253
-0.16353 -0.08465 5.04395 207 183 245
-0.18593 1.10966 5.73771 82 168 95
-0.15373 -0.31080 4.89871 181 20 114
-0.15249 -0.13362 5.01000 167 134 213
-0.16578 0.68423 5.48216 197 45 254
-0.16859 0.98373 5.66145 87 164 194
-0.16869 1.03447 5.68756 97 184 227
-0.15396 0.30927 5.25453 235 153 191
-0.16453 0.95442 5.64696 102 183 212
-0.15122 0.24716 5.22730 235 112 226
-0.13985 -0.33177 4.88962 118 31 198
-0.16301 1.07476 5.72301 130 203 246
-0.14370 0.04993 5.11205 188 90 211
-0.14277 0.10414 5.14014 169 108 203
-0.14920 0.78478 5.54240 221 183 244
-0.14591 0.74544 5.52222 203 93 254
-0.13757 0.27676 5.23742 255 248 255
-0.18365 -0.03495 7.08130 233 148 249
-0.18365 -0.03495 7.08130 233 148 249
-0.18365 -0.03495 7.08130 233 148 249
-0.14642 1.01106 5.66296 126 214 226
-0.13631 0.39270 5.30107 222 159 116
-0.12503 -0.07801 5.03431 182 126 249
-0.11547 -0.36883 4.83838 94 35 221
-0.12676 0.58109 5.41542 166 150 239
-0.11660 -0.14526 4.98124 201 167 227
-0.13009 0.88807 5.56647 110 108 183
-0.11738 0.13385 5.14096 172 120 182
-0.11911 0.46928 5.33261 255 100 255
-0.11415 0.10598 5.12676 198 133 233
-0.11966 -0.65354 5.48728 236 99 107
-0.11099 0.33289 5.25322 210 146 224
-0.11916 0.81437 5.65004 180 155 210
-0.10886 0.29124 5.22718 242 163 220
-0.11139 0.54576 5.37516 177 92 247
-0.09879 -0.31650 4.87318 129 100 228
-0.10582 0.73040 5.47970 210 142 255
-0.11385 -0.97326 6.10636 101 82 127
-0.11385 -0.97326 6.10636 101 82 127
-0.11135 -0.93284 6.03412 251 221 255
-0.09034 0.01642 5.05083 204 117 222
-0.08924 -0.46109 4.99903 234 216 204
-0.08788 -0.18597 4.94109 164 114 227
-0.09266 0.31344 5.23087 255 247 255
-0.08975 0.34826 5.23758 255 247 255
-0.08728 -0.52310 5.13408 164 70 164
-0.08433 0.44539 5.29880 193 80 248
-0.08701 0.84052 5.52417 160 162 223
-0.08318 -0.64393 5.43892 223 71 70
-0.07287 0.59161 5.36700 190 123 252
-0.06949 0.31945 5.21790 217 156 200
-0.07000 0.40359 5.26690 178 168 255
-0.06399 -0.08763 4.98177 187 148 237
-0.07011 0.86591 5.53417 173 133 245
-0.06080 -0.31976 4.84455 71 101 233
-0.07065 1.11766 5.67840 76 108 167
-0.06315 -0.80273 5.76547 199 141 121
-0.05690 0.70531 5.43448 181 96 241
-0.05266 0.26634 5.17935 96 234 35
-0.05431 0.76850 5.47981 173 159 238
-0.04834 0.17415 5.12524 183 119 171
-0.04731 0.04791 5.05032 191 107 195
-0.03966 0.11931 5.08915 188 135 217
-0.04314 0.93165 5.56386 88 16 214
-0.04314 0.93165 5.56386 88 16 214
-0.04182 0.79662 5.46950 97 134 251
-0.03918 0.29394 5.19513 246 255 243
-0.03716 -0.02203 5.00437 135 21 10
-0.03870 0.39379 5.24448 132 159 240
-0.03655 0.59086 5.35233 244 172 255
-0.03537 0.66977 5.40264 220 162 221
-0.03691 1.19116 5.69688 78 155 165
-0.03620 1.11921 5.65937 85 137 174
-0.03067 -0.14906 4.92594 119 137 239
-0.03056 -0.52519 5.18482 189 223 126
-0.03056 -0.52519 5.18482 189 223 126
-0.02946 -0.69967 5.54245 122 16 65
-0.02686 0.52915 5.30885 223 109 207
-0.02074 1.00223 5.58412 153 114 229
-0.01619 -1.06519 6.34975 206 80 241
-0.01117 -0.26803 4.84491 75 90 215
-0.01119 -0.30511 4.84131 104 166 253
-0.01173 1.16761 5.67372 46 118 143
-0.01102 0.83816 5.48166 105 124 253
-0.00854 -0.36948 4.82643 76 106 114
-0.00794 0.44189 5.24839 152 162 211
-0.00895 -0.98132 6.13150 176 91 208
-0.00695 0.87793 5.48953 168 127 255
-0.00280 1.26455 5.72537 97 142 147
0.00296 0.16200 5.08661 246 143 216
0.00296 0.16200 5.08661 246 143 216
0.00442 0.41468 5.22683 196 204 253
0.00870 -0.14483 4.89043 109 107 243
0.00861 -0.12750 4.90031 109 105 218
0.01014 0.58152 5.33196 250 240 255
0.01014 0.58152 5.33196 250 240 255
0.01104 0.99107 5.55945 138 154 216
0.01104 0.99107 5.55945 138 154 216
0.01083 0.50523 5.27788 248 247 252
0.01318 0.47835 5.25551 176 152 202
0.01418 0.62002 5.34728 170 149 252
0.01597 1.15004 5.64721 85 145 109
0.01479 0.38615 5.20890 185 193 229
0.01823 -0.37935 4.89707 145 144 88
0.02108 -0.71076 5.58492 94 43 60
0.02188 1.05038 5.56821 41 107 119
0.02188 1.05038 5.56821 41 107 119
0.02608 0.30331 5.15283 111 224 46
0.02887 0.54826 5.30399 255 240 255
0.02887 0.54826 5.30399 255 240 255
0.02964 -0.08554 4.91601 176 115 219
0.03391 0.91365 5.49777 134 167 208
0.03499 0.36138 5.17766 188 187 219
0.03582 0.52396 5.26943 173 183 195
0.04167 1.17545 5.64169 70 107 90
0.04167 1.17545 5.64169 70 107 90
0.04103 -0.03952 4.94897 192 115 161
0.04557 0.60530 5.31091 156 182 243
0.04150 -0.24431 4.82353 103 77 176
0.05042 -0.70321 5.53851 81 70 78
0.04995 0.58306 5.29526 250 254 255
0.05306 0.81111 5.41239 141 200 255
0.05166 0.17657 5.06188 243 93 216
0.05377 -0.51489 5.14792 182 229 117
0.05917 -0.74370 5.62578 253 241 243
0.05429 0.30033 5.13517 212 195 203
0.06603 1.26139 5.67770 121 61 131
0.06401 0.52703 5.25170 242 253 249
0.06779 1.00383 5.52860 106 181 174
0.07065 1.05210 5.55333 114 183 154
0.06533 0.22539 5.08053 241 175 187
0.08531 -1.17257 6.53555 190 247 206
0.07290 0.56642 5.27667 169 195 244
0.07290 0.56642 5.27667 169 195 244
0.08025 0.83383 5.35334 143 214 216
0.08367 0.60371 5.28015 140 166 251
0.07739 -0.26988 4.78842 145 135 198
0.09726 -0.90759 6.00237 100 123 139
0.09371 1.20150 5.62343 124 86 133
0.08574 -0.48954 5.05359 253 245 242
0.08574 -0.48954 5.05359 253 245 242
0.11233 -1.09525 6.45402 193 80 194
0.09884 1.24762 5.65211 158 105 135
0.08678 -0.15213 4.84682 129 64 168
0.09398 -0.18197 4.83040 157 129 178
0.10463 0.06903 4.96362 162 116 127
0.11157 -0.56099 5.20232 246 255 245
0.11565 0.62518 5.28157 101 185 209
0.12631 1.19743 5.60342 160 115 154
0.12540 -0.71154 5.54824 229 210 195
0.12010 0.52064 5.21467 233 255 241
0.11879 0.41731 5.15541 204 146 161
0.12408 0.70223 5.31617 147 6 0
0.12408 0.70223 5.31617 147 6 0
0.12655 0.57703 5.24253 132 202 210
0.12682 0.53867 5.22087 244 248 255
0.11993 0.04488 4.94179 187 130 163
0.12898 0.58099 5.24268 152 200 210
0.11968 -0.39272 4.81368 162 202 105
0.13064 0.49999 5.19712 108 170 84
0.12285 -0.07448 4.87379 137 107 207
0.14199 0.90079 5.41731 125 215 203
0.13001 -0.44549 4.96741 234 216 196
0.12710 -0.15894 4.83012 139 147 183
0.14621 1.04122 5.50560 158 167 88
0.13609 0.21008 5.02690 156 109 129
0.14340 0.65848 5.27556 110 250 213
0.13534 -0.10551 4.84781 129 88 184
0.14238 0.29489 5.07776 166 94 167
0.14446 0.41565 5.14313 227 168 138
0.14619 0.46871 5.17230 199 188 166
0.14171 -0.04251 4.87685 83 73 186
0.15402 0.59627 5.23422 217 255 246
0.16575 -0.73351 5.62267 226 235 192
0.15288 0.06098 4.93145 105 104 146
0.16905 0.96854 5.44540 89 203 195
0.17786 -0.73897 5.62169 245 254 225
0.19825 -1.00566 6.25292 180 80 178
0.20482 -1.10181 6.43420 255 229 255
0.15853 0.13236 4.97762 34 244 33
0.16889 0.72293 5.28896 171 248 212
0.17330 0.89686 5.40450 149 167 215
0.16802 0.55630 5.21233 141 203 216
0.16980 0.37423 5.09708 212 122 134
0.17086 0.33830 5.08309 139 65 190
0.17238 0.03246 4.90696 80 158 206
0.17238 0.03246 4.90696 80 158 206
0.16624 -0.30454 4.71547 90 98 243
0.19916 1.15812 5.54116 182 32 158
0.17085 -0.24142 4.75184 90 138 204
0.18500 -0.52271 5.13620 255 243 220
0.19442 0.84655 5.35955 165 169 198
0.19458 0.81371 5.34206 174 225 218
0.18189 -0.46856 4.98517 183 212 182
0.20442 1.05272 5.46891 162 121 127
0.18337 -0.04991 4.83721 70 101 165
0.19272 0.27194 5.03417 139 122 96
0.22589 -0.85439 5.88131 133 112 191
0.19384 0.19567 4.97309 167 114 108
0.19989 -0.50639 5.11859 182 127 45
0.19972 0.30135 5.04806 137 59 143
0.21865 1.11286 5.49102 199 85 110
0.19199 -0.18364 4.76730 121 182 175
0.22185 1.08385 5.48050 156 74 86
0.20653 0.36473 5.10055 162 67 148
0.19646 -0.02855 4.84988 74 132 195
0.19434 -0.21272 4.74891 90 156 206
0.22728 1.19148 5.54321 178 29 131
0.20796 0.33035 5.06025 152 94 152
0.20796 0.33035 5.06025 152 94 152
0.20638 0.16166 4.95012 146 98 75
0.22419 0.84999 5.34129 181 233 197
0.21114 0.08534 4.91409 109 84 139
0.22075 -0.45914 4.98189 147 171 181
0.22100 0.19624 4.96666 136 85 92
0.22044 -0.00245 4.84502 50 104 200
0.25160 1.08962 5.46711 156 101 133
0.30675 -1.14792 6.62040 69 231 182
0.22042 -0.18000 4.75221 70 163 178
0.24027 0.54423 5.14979 177 152 207
0.24429 0.66978 5.23026 33 40 173
0.24429 0.66978 5.23026 33 40 173
0.24960 0.86905 5.33478 126 215 159
0.24960 0.86905 5.33478 126 215 159
0.26581 1.21171 5.50556 178 3 124
0.24651 0.18752 4.94886 163 119 94
0.29575 -0.85033 5.85585 88 128 213
0.32157 -0.96337 6.15906 121 144 211
0.33245 -1.07210 6.32725 206 158 210
0.27413 0.54362 5.13347 181 187 199
0.29346 1.10341 5.44965 110 56 114
0.25623 -0.35239 4.74244 194 168 171
0.25678 -0.12187 4.75103 65 145 134
0.30424 1.30986 5.56062 186 21 115
0.27382 0.18806 4.92904 147 89 127
0.27130 0.07789 4.87123 137 147 174
0.27800 0.27030 4.98052 187 126 79
0.30312 0.95626 5.35621 111 137 138
0.27138 -0.26909 4.67768 105 201 174
0.32614 -0.79029 5.59782 118 107 175
0.29752 0.51939 5.10805 157 140 150
0.29592 0.37428 5.02293 102 84 108
0.27568 -0.26688 4.67683 108 202 175
0.37114 -1.01490 6.23181 238 204 231
0.28026 -0.19328 4.69594 64 196 172
0.30213 0.34143 5.00287 152 131 100
0.28704 -0.10094 4.74600 40 184 151
0.33225 1.11952 5.43084 179 107 127
0.30872 -0.48110 5.04208 163 210 142
0.33622 1.05096 5.38697 168 122 148
0.29982 -0.33540 4.72020 139 95 172
0.32819 0.52869 5.09950 172 176 162
0.33359 -0.53483 5.14690 212 249 255
0.35101 1.08727 5.41101 145 80 88
0.32927 0.45705 5.04861 125 110 117
0.32985 0.42702 5.03836 159 152 124
0.32985 0.42702 5.03836 159 152 124
0.33244 -0.47191 5.05237 217 84 43
0.35330 1.02037 5.36513 136 124 174
0.32678 0.28662 4.95667 178 83 103
0.32513 0.23251 4.92653 165 84 101
0.35972 1.16139 5.43833 134 38 109
0.42045 -1.02164 6.25030 255 230 244
0.31570 -0.14232 4.69274 72 173 217
0.35697 -0.58775 5.25963 87 188 132
0.39477 -0.82158 5.78826 144 140 154
0.37924 1.34050 5.52845 208 85 113
0.37740 1.24802 5.47754 129 51 77
0.32199 -0.24137 4.65455 118 240 193
0.35350 0.55659 5.09511 139 230 137
0.38384 1.21578 5.46339 167 69 118
0.35949 -0.51303 5.10937 85 184 138
0.36019 -0.48843 5.08413 159 216 145
0.34045 0.02997 4.80198 157 208 89
0.36040 0.51025 5.06601 104 162 104
0.35139 0.19239 4.88586 185 151 123
0.37757 0.77609 5.20408 142 240 181
0.37500 0.65960 5.15807 168 236 213
0.37500 0.65960 5.15807 168 236 213
0.34494 -0.17476 4.67946 84 204 205
0.37194 0.41204 5.00006 179 130 90
0.37585 0.46519 5.03054 137 174 143
0.37495 0.30454 4.92754 214 134 173
0.36626 0.08572 4.81346 173 179 109
0.39302 -0.53220 5.15796 80 173 188
0.40662 1.01331 5.34018 194 212 162
0.36537 0.05110 4.79288 156 53 74
0.45222 -0.84899 5.84606 136 138 212
0.40268 0.75975 5.17732 118 198 173
0.48066 -0.94875 6.07483 57 109 149
0.38814 0.18619 4.85423 160 125 105
0.51503 -1.04209 6.28978 195 155 130
0.51503 -1.04209 6.28978 195 155 130
0.42284 0.72575 5.14730 164 253 223
0.41145 0.39360 4.96687 221 185 97
0.39803 0.05698 4.78614 164 175 143
0.39950 0.09785 4.79673 153 139 74
0.43294 -0.53170 5.14424 184 246 223
0.46122 1.01350 5.36019 105 30 61
0.47166 1.14956 5.44345 188 246 247
0.43096 -0.45223 4.97403 135 173 182
0.46266 0.69278 5.20067 115 69 159
0.47324 -0.60223 5.23905 100 217 113
0.50099 0.94717 5.39814 223 237 250
0.48603 -0.56085 5.18361 244 255 250
0.61370 -1.03099 6.28396 191 140 137
0.59321 -0.93384 6.06770 48 63 34
0.55987 -0.79540 5.70286 217 102 117
0.53488 0.71745 5.37587 172 162 163
0.64263 -1.04556 6.30360 255 237 255
0.62421 -0.84635 5.85342 197 112 131
0.62197 -0.80410 5.74911 243 135 135
0.59026 0.48740 5.40640 93 109 161
0.61524 0.62822 5.53800 186 183 190
0.61524 0.62822 5.53800 186 183 190
0.57120 0.01816 5.07271 192 168 166
0.63724 0.64992 5.61164 82 115 160
0.56057 -0.19954 4.92842 45 149 86
0.73768 -1.04259 6.31309 163 194 152
0.58094 -0.28264 4.94119 236 158 174
0.61548 0.10025 5.23204 197 254 160
0.58338 -0.41454 4.86921 115 127 125
0.67570 -0.73492 5.60685 205 222 152
0.66755 0.38399 5.53397 67 133 106
0.62719 -0.10664 5.15420 151 172 163
0.60708 -0.38794 4.95773 189 140 222
0.72688 0.64542 5.84078 70 70 124
0.67212 -0.22658 5.22443 153 177 189
0.81019 -1.03485 6.25973 161 190 188
0.74291 0.26039 5.66206 95 64 194
0.79321 0.64030 6.01916 185 141 130
0.72397 -0.01052 5.45961 232 233 253
0.79177 -0.88057 5.92920 227 149 87
0.71964 -0.16888 5.35185 125 224 230
0.76351 -0.75988 5.64795 242 146 108
0.74573 -0.69057 5.50327 154 192 83
0.75682 -0.10175 5.52261 211 213 255
0.85513 0.72070 6.21635 169 30 69
0.85513 0.72070 6.21635 169 30 69
0.83997 -0.93101 6.03083 139 54 111
0.84039 0.09918 5.83279 116 8 24
0.79587 -0.38895 5.45699 102 65 160
0.83418 -0.08675 5.71182 244 215 149
0.81695 -0.70842 5.51567 196 179 89
0.86252 -0.28840 5.68684 236 203 122
0.92799 -0.96231 6.09797 209 194 79
0.92681 0.13134 6.07826 205 73 218
0.96602 0.24655 6.25932 15 84 115
0.89795 -0.24727 5.78540 194 192 195
0.89236 -0.68066 5.56259 92 175 145
1.00962 0.05842 6.26119 206 130 220
1.08604 0.41089 6.65322 75 154 193
1.08487 0.31465 6.60378 120 131 197
0.96194 -0.84315 5.82333 222 156 43
0.95146 -0.60031 5.73453 48 89 179
1.08209 0.18158 6.52135 154 202 251
1.13921 0.34084 6.76783 104 223 191
1.13921 0.34084 6.76783 104 223 191
1.11997 0.20400 6.63587 77 187 240
0.97488 -0.77330 5.72010 85 86 132
1.01034 -0.65177 5.88274 108 170 207
1.10166 -0.28571 6.31468 117 85 44
1.06010 -0.79399 5.93361 129 185 158
1.12143 -0.91009 6.01731 144 124 115
1.16652 -0.91667 6.13597 224 158 106
1.24798 -0.90730 6.37791 150 114 98
-1.14371 0.08977 5.78945 154 46 96
-1.14371 0.08977 5.78945 154 46 96
-1.10106 -0.20690 5.63286 140 255 198
-1.08530 0.27704 5.85768 244 178 146
-1.09991 0.41343 5.93861 210 175 153
-1.06965 0.23439 5.82759 222 168 156
-1.04858 0.15688 5.76113 191 197 195
-1.04437 0.12400 5.74395 193 229 217
-1.01265 -0.05508 5.62766 196 209 244
-1.07824 0.70422 6.09980 173 197 147
-1.08015 0.75340 6.12461 159 153 167
-0.89555 -0.47486 5.30286 113 216 255
-1.01367 0.58751 5.98764 138 165 132
-0.98739 0.44145 5.87814 209 226 88
-0.85203 -0.58383 5.27748 228 142 155
-0.96554 0.86090 6.10648 107 81 128
-0.86526 0.27532 5.67947 229 223 137
-0.78819 -0.06072 5.46469 177 182 201
-0.75395 -0.19042 5.36517 158 124 210
-0.84341 -0.68877 5.50486 231 107 117
-0.80497 0.34549 5.72005 246 245 243
-0.70565 -0.29683 5.28490 129 169 221
-0.68352 -0.51809 5.16744 88 87 204
-0.75193 0.29234 5.64036 154 56 191
-0.69434 -0.13558 5.36250 247 252 248
-0.70852 0.37308 5.67535 96 150 101
-0.67628 0.15199 5.52316 218 180 195
-0.70129 0.47157 5.71746 68 220 137
-0.62001 -0.35961 5.19810 144 195 238
-0.70195 0.61736 5.79620 209 27 236
-0.70195 0.61736 5.79620 209 27 236
-0.66900 0.33696 5.62067 132 206 171
-0.65096 0.28514 5.59418 109 244 177
-0.71527 -0.66681 5.53168 179 153 188
-0.62229 0.13110 5.48322 206 155 134
-0.63076 0.42362 5.63861 81 181 153
-0.64566 0.74064 5.79075 187 201 228
-0.68103 1.06316 6.02160 223 71 190
-0.58669 -0.05475 5.34966 249 233 255
-0.59135 0.00120 5.38696 255 246 255
-0.59999 -0.55910 5.24488 151 104 196
-0.66816 0.95668 5.97681 244 110 171
-0.54894 -0.24288 5.22922 252 238 255
-0.84132 -0.90135 6.00136 90 124 214
-0.51046 -0.45945 5.07199 109 112 243
-0.54418 -0.02722 5.34085 152 84 187
-0.57276 0.32995 5.56980 220 167 197
-0.48272 -0.27628 5.14928 170 163 255
-0.48272 -0.27628 5.14928 170 163 255
-0.57565 1.10209 6.00314 253 128 245
-0.43649 -0.41453 5.04202 102 85 239
-0.48540 0.29360 5.47137 134 199 167
-0.52781 0.92208 5.85473 255 238 252
-0.46889 -0.54361 5.18576 125 63 250
-0.46078 0.42411 5.53541 96 170 147
-0.58479 -0.74546 5.64222 173 204 163
-0.39858 -0.47531 5.07016 233 178 236
-0.39858 -0.47531 5.07016 233 178 236
-0.46120 0.93217 5.82510 235 174 231
-0.36119 -0.43354 4.97906 113 84 224
-0.45362 0.94698 5.83753 246 200 246
-0.32143 -0.25574 5.04440 213 115 255
-0.29108 -0.41812 4.95518 84 116 201
-0.29218 -0.28787 5.01857 170 99 255
-0.31634 0.85361 5.68556 173 166 236
-0.22448 -0.34384 4.94083 112 107 199
-0.28892 0.89335 5.69806 160 158 242
-0.20020 -0.39509 4.90008 78 79 172
-0.36598 -0.68975 5.51036 170 181 139
-0.21821 0.51055 5.44884 67 125 77
-0.23242 0.98218 5.70323 112 120 244
-0.22307 1.12610 5.77505 63 209 98
-0.21485 0.91966 5.66048 175 161 249
-0.46705 -0.95239 6.08895 160 164 212
-0.14496 0.04935 5.11769 186 94 219
-0.14428 0.43359 5.32732 210 81 244
-0.11939 -0.14839 4.99237 194 161 218
-0.13409 0.31854 5.26528 247 226 245
-0.41121 -0.91277 6.00743 255 238 255
-0.11551 0.19351 5.17708 177 136 192
-0.11551 0.19351 5.17708 177 136 192
-0.09187 0.15918 5.13301 206 181 220
-0.08367 0.10811 5.11449 148 95 211
-0.08367 0.10811 5.11449 148 95 211
-0.30130 -0.79764 5.72742 228 201 134
-0.09254 0.79049 5.51630 163 142 233
-0.07059 0.36774 5.23976 145 145 243
-0.07491 0.55051 5.36015 215 130 251
-0.05660 0.26761 5.19883 122 224 63
-0.03566 -0.23960 4.87211 111 87 225
-0.02631 -0.20097 4.89424 104 48 207
-0.03601 0.32709 5.22449 226 228 225
-0.04313 0.79847 5.47727 103 134 251
0.00510 -0.12894 4.91729 109 104 220
0.01791 0.11160 5.04727 204 113 240
0.02213 0.08649 5.03114 175 72 215
-0.11898 -0.62951 5.40884 255 201 202
0.03694 -0.34364 4.78068 142 159 237
0.02236 1.04932 5.56565 44 105 126
0.04206 0.45889 5.23396 199 223 225
0.05608 -0.18812 4.85388 139 59 158
0.05952 1.33572 5.67081 40 40 40
0.09025 -0.06254 4.90462 143 64 192
0.08026 -0.38467 4.81795 148 152 101
0.09393 0.48527 5.22134 106 175 69
0.10808 -0.35991 4.75327 224 210 243
0.11354 0.78011 5.38198 144 5 2
0.11354 0.78011 5.38198 144 5 2
0.12713 0.54216 5.22174 245 255 255
-0.00429 -0.62572 5.32828 230 63 71
0.13370 0.69111 5.27989 145 7 4
-0.02033 -0.69438 5.49340 109 20 68
0.09387 -0.46927 5.01664 231 203 199
0.15646 1.07876 5.51274 165 101 89
0.17092 -0.24352 4.75064 96 140 205
0.18016 0.50072 5.16607 186 152 166
0.19203 1.29669 5.61194 161 141 190
-0.09178 -0.94592 6.02216 252 221 255
0.21846 0.90304 5.37691 163 207 192
0.04361 -0.72488 5.51661 253 218 198
0.14310 -0.50337 5.08772 187 139 75
0.24722 1.28231 5.57072 173 53 151
0.25416 0.48044 5.10588 200 163 145
0.25463 -0.29502 4.67163 130 230 194
0.07328 -0.76079 5.63573 243 231 235
0.12936 -0.65390 5.43279 109 132 114
0.30852 0.56259 5.12175 152 171 177
0.31804 1.20695 5.48112 203 54 73
0.31351 -0.21354 4.67725 9 7 140
0.35052 0.25689 4.93007 181 108 138
0.34942 -0.28163 4.61456 97 207 162
0.35214 -0.25585 4.63034 79 165 154
0.35666 -0.10327 4.71028 45 170 214
0.27584 -0.51191 5.10565 78 197 139
0.31066 -0.44124 4.93418 188 197 196
0.31066 -0.44124 4.93418 188 197 196
0.40071 0.96102 5.29229 143 169 206
0.40531 1.00486 5.31471 183 205 167
0.41915 1.37620 5.47887 41 39 40
0.38919 -0.26914 4.59407 100 187 144
0.41914 0.81038 5.18790 135 205 168
0.40700 0.25653 4.91032 140 92 142
0.24800 -0.71652 5.55121 134 187 135
0.42533 -0.01442 4.73508 144 120 118
0.47024 1.32228 5.47500 150 241 255
0.45039 0.58969 5.08016 99 143 45
0.45913 0.80573 5.21451 165 139 213
0.42051 -0.33004 4.64615 181 105 170
0.46536 0.92976 5.29521 129 19 54
0.47657 1.07694 5.40538 200 240 239
0.34301 -0.57364 5.20623 112 214 140
0.47065 0.71809 5.18690 159 127 177
0.45667 0.12121 4.82607 255 210 181
0.45667 0.12121 4.82607 255 210 181
0.46333 0.21621 4.87467 209 255 128
0.47203 0.61012 5.13491 145 163 175
0.49136 1.18998 5.50467 87 164 182
0.49128 0.99102 5.37036 248 249 253
0.48234 0.75575 5.26524 122 115 156
0.48197 0.56134 5.12498 102 142 46
0.45898 -0.31587 4.63325 194 118 148
0.49118 0.69434 5.23113 117 96 137
0.47776 0.15187 4.89401 169 89 186
0.50010 0.90932 5.34976 162 163 220
0.48885 0.21840 4.95544 198 196 121
0.21056 -1.09993 6.38154 242 194 236
0.49265 0.24433 4.98756 215 196 130
0.52224 1.10854 5.51085 234 255 254
0.52354 1.18052 5.56995 116 239 176
0.49895 0.31913 5.03474 175 91 91
0.49806 0.26611 5.02111 174 98 100
0.47792 -0.35194 4.71723 205 74 150
0.51776 0.70209 5.31096 253 254 249
0.48593 -0.33206 4.68975 167 68 122
0.50760 0.22620 5.01714 227 200 123
0.54437 1.11559 5.51018 105 210 179
0.52103 0.67326 5.32359 115 102 120
0.52103 0.67326 5.32359 115 102 120
0.22027 -1.22525 6.53967 248 62 185
0.24319 -1.11968 6.42481 218 126 173
0.50417 -0.32338 4.70914 255 194 215
0.55361 0.95876 5.53034 238 255 249
0.56066 1.13867 5.64388 93 252 214
0.55193 0.91753 5.52200 238 246 248
0.53716 0.43536 5.21195 108 105 116
0.44106 -0.57511 5.21045 79 179 107
0.55015 0.70349 5.38094 252 241 245
0.54634 0.64055 5.35966 92 113 94
0.29585 -1.07706 6.30401 212 164 212
0.51644 -0.36171 4.75106 186 67 121
0.52933 -0.04431 4.93358 207 205 167
0.53307 0.04060 4.98161 196 187 172
0.54260 0.30365 5.15429 113 88 48
0.56794 0.98926 5.57589 83 201 153
0.52666 -0.16646 4.86142 238 216 229
0.51410 -0.38645 4.78672 222 145 117
0.55397 0.57174 5.33468 103 158 116
0.55209 0.32705 5.15117 200 176 86
0.55540 0.53341 5.34480 111 137 126
0.56262 0.65836 5.40696 250 250 248
0.54829 0.13703 5.07358 186 192 178
0.53211 -0.34764 4.76627 255 205 227
0.56528 0.51837 5.30613 111 137 126
0.56796 0.59261 5.36922 243 253 244
0.57287 0.69315 5.44489 142 60 136
0.57477 0.69334 5.43853 142 60 136
0.55933 0.25711 5.15835 255 253 236
0.54554 -0.10708 4.93590 200 151 230
0.58014 0.79114 5.50538 132 104 155
0.56312 0.29736 5.17563 255 247 208
0.34068 -1.03198 6.21383 188 88 184
0.54136 -0.26370 4.84124 251 170 189
0.55516 0.05788 5.05510 184 205 186
0.56579 0.33787 5.24071 129 138 57
0.59358 1.03240 5.67628 115 247 207
0.49704 -0.51689 5.10973 142 176 149
0.57889 0.51091 5.34573 215 229 240
0.56321 0.16881 5.17738 165 160 130
0.60854 1.13980 5.76396 163 209 183
0.58893 0.61820 5.42674 88 89 117
0.54760 -0.40177 4.81639 203 172 126
0.57606 0.21202 5.20035 253 255 243
0.61192 1.03738 5.70577 92 191 173
0.55891 -0.29713 4.85955 255 208 227
0.59555 0.53864 5.39437 80 154 91
0.61185 0.70554 5.51462 98 83 168
0.62927 1.15304 5.82004 160 155 133
0.62346 0.97213 5.71158 128 122 182
0.59638 0.25737 5.24770 135 191 156
0.57384 -0.24812 4.93600 244 194 159
0.59639 0.20721 5.22374 154 202 162
0.58267 -0.13637 5.01666 204 141 160
0.62630 0.70890 5.58717 46 84 157
0.64194 1.02060 5.76597 147 143 176
0.62081 0.47552 5.44381 208 230 241
0.62081 0.47552 5.44381 208 230 241
0.61119 0.24995 5.29899 118 216 169
0.62068 0.41456 5.39359 221 227 251
0.63035 0.56750 5.47391 205 184 181
0.60376 -0.09609 5.09743 199 218 172
0.60807 -0.03738 5.12097 198 227 169
0.63854 0.49926 5.45062 70 162 111
0.65439 0.85180 5.69832 193 179 140
0.67152 1.15937 5.92248 212 210 133
0.63577 0.37612 5.43185 236 250 250
0.66588 0.97538 5.83134 232 164 127
0.65294 0.56814 5.56204 181 189 176
0.65979 0.71699 5.66648 92 110 88
0.60800 -0.39133 4.94164 186 132 228
0.61831 -0.20667 5.07072 250 207 162
0.66144 0.66582 5.64458 102 162 248
0.63494 0.04062 5.24225 170 245 212
0.62768 -0.10888 5.14499 144 163 167
0.64822 0.26682 5.40329 173 230 187
0.69346 1.01246 5.90498 172 171 104
0.50932 -0.89963 5.95712 149 114 172
0.70116 1.09143 5.94534 240 223 151
0.63413 -0.29047 5.05601 181 137 150
0.64186 -0.19956 5.13680 169 194 155
0.48072 -1.07792 6.31689 191 135 164
0.64257 -0.32663 5.07363 193 163 191
0.69179 0.56591 5.67319 91 178 146
0.66556 0.06095 5.33357 133 186 204
0.67503 0.11120 5.38302 120 208 192
0.70184 0.52519 5.66993 48 125 143
0.65153 -0.46150 5.01668 227 219 183
0.67401 -0.06126 5.28120 214 251 171
0.72460 0.87046 5.92876 175 164 108
0.72460 0.87046 5.92876 175 164 108
0.68982 0.21585 5.49368 143 249 149
0.70719 0.41215 5.62127 96 254 9
0.67148 -0.44548 5.07625 202 202 202
0.72591 0.45962 5.67737 65 79 124
0.74081 0.67297 5.84340 111 111 121
0.68476 -0.30339 5.19212 142 116 203
0.75809 0.95525 6.05268 166 170 155
0.70907 -0.03278 5.36736 251 255 255
0.69132 -0.32391 5.19453 128 93 193
0.70658 -0.06085 5.38026 242 248 248
0.72351 0.19958 5.57951 241 255 254
0.77148 0.99690 6.10827 177 102 107
0.55564 -1.10381 6.39399 246 215 210
0.75579 0.64996 5.88350 24 58 181
0.69048 -0.50117 5.09257 194 204 177
0.75255 0.54481 5.83126 80 89 98
0.69773 -0.40426 5.15484 164 113 208
0.72064 -0.05343 5.41482 200 212 238
0.74891 0.41294 5.75207 113 137 137
0.78246 0.93672 6.11241 194 97 138
0.74484 0.19481 5.61219 163 164 231
0.75242 0.29079 5.70971 98 248 19
0.71061 -0.43830 5.18757 172 175 180
0.70910 -0.47141 5.16667 122 146 158
0.80213 0.94998 6.14715 255 130 124
0.80529 0.98901 6.18571 238 82 93
0.72225 -0.34839 5.25455 173 104 185
0.79626 0.72647 6.04976 150 108 154
0.76240 0.17956 5.65042 150 163 255
0.75186 -0.02349 5.49739 241 249 255
0.73772 -0.25439 5.35134 149 173 221
0.77384 0.30479 5.74522 105 125 150
0.75028 -0.12885 5.45340 126 146 245
0.77584 0.22856 5.70265 86 129 224
0.79415 0.51415 5.93690 148 70 128
0.79415 0.51415 5.93690 148 70 128
0.75809 -0.10492 5.48721 249 245 255
0.75771 -0.22655 5.41371 66 161 227
0.84300 0.97243 6.26698 249 110 55
0.80720 0.34495 5.87484 127 83 134
0.77573 -0.14387 5.51059 125 165 250
0.81401 0.38808 5.90371 121 85 149
0.76925 -0.31640 5.39913 178 185 255
0.69077 -0.92247 5.98101 233 152 107
0.82623 0.49035 5.98194 184 115 169
0.76616 -0.44162 5.32428 126 146 134
0.86241 0.81524 6.25614 224 101 182
0.78567 -0.28107 5.46191 147 184 237
0.77800 -0.40299 5.39188 132 137 179
0.79234 -0.25810 5.49204 117 140 210
0.85425 0.60780 6.13536 232 125 119
0.81555 0.03896 5.66692 195 173 255
0.87659 0.88617 6.32344 227 77 141
0.78440 -0.44292 5.35297 103 108 52
0.85370 0.50386 6.05903 200 37 142
0.84483 0.35746 5.94445 209 156 210
0.80748 -0.18216 5.56985 74 62 112
0.83687 0.21000 5.84982 167 110 243
0.78391 -0.52375 5.32009 90 110 147
0.87833 0.78031 6.28718 250 225 247
0.70815 -1.05069 6.23915 248 255 255
0.77717 -0.66008 5.39379 127 175 91
0.85960 0.38851 5.99670 137 62 207
0.86725 0.43852 6.05309 206 67 210
0.82467 -0.14085 5.62561 223 163 255
0.80783 -0.37342 5.46219 119 158 189
0.88871 0.69594 6.24082 255 240 252
0.79178 -0.63147 5.31019 101 203 104
0.83547 -0.08322 5.67843 243 219 131
0.91259 0.93927 6.42864 251 156 162
0.90577 0.81202 6.34966 120 13 191
0.82042 -0.34220 5.50958 139 129 182
0.89369 0.62657 6.24544 255 236 255
0.88118 0.35747 6.03780 113 63 236
0.86863 0.14442 5.87295 175 112 226
0.84849 -0.11531 5.71077 249 215 144
0.92752 0.79373 6.37036 255 233 255
0.83258 -0.42748 5.48400 76 97 150
0.84015 -0.33787 5.55939 146 147 214
0.92284 0.69130 6.32886 236 97 198
0.92019 0.63265 6.25632 230 83 216
0.90933 0.47268 6.18930 94 12 122
0.82503 -0.63035 5.37470 129 192 175
0.86772 -0.11852 5.73668 212 71 225
0.87423 -0.06403 5.77056 183 127 70
0.85856 -0.31240 5.61382 130 122 207
0.94199 0.58412 6.33346 190 252 203
0.81023 -0.91863 5.97104 236 175 92
0.85658 -0.53964 5.49662 154 186 136
0.89359 -0.13765 5.78576 153 72 229
0.95047 0.48591 6.26687 194 109 239
0.89934 -0.17116 5.81402 133 93 225
0.88011 -0.40246 5.62836 92 62 246
0.89139 -0.28909 5.72435 141 128 210
0.86975 -0.57621 5.49982 212 102 67
0.87883 -0.47135 5.59840 84 128 201
0.87960 -0.53186 5.57017 122 147 117
0.87198 -0.66974 5.45558 87 196 167
0.89722 -0.45609 5.64762 93 131 240
0.88980 -0.58707 5.56027 112 187 148
0.89918 -0.52090 5.64002 148 162 223
0.95550 0.01516 6.03536 131 77 227
0.93733 -0.19549 5.86366 105 103 248
0.97161 0.17871 6.19308 154 110 233
0.90379 -0.65130 5.57266 67 152 149
0.96165 -0.09563 5.94757 194 58 254
1.04681 0.71534 6.65088 173 113 125
1.01494 0.35634 6.39358 69 75 107
1.01494 0.35634 6.39358 69 75 107
0.92450 -0.65272 5.62652 114 197 145
1.03486 0.49902 6.50983 128 53 195
0.97456 -0.15011 6.03308 160 166 130
0.95648 -0.37183 5.82061 82 9 238
0.94067 -0.54843 5.72515 13 44 230
0.94067 -0.54843 5.72515 13 44 230
0.93357 -0.62646 5.61451 59 215 88
0.95209 -0.44078 5.80091 145 84 239
1.02115 0.22631 6.32623 207 146 241
0.95562 -0.48987 5.76518 141 100 241
1.07111 0.70548 6.69083 247 224 244
1.07111 0.70548 6.69083 247 224 244
0.94650 -0.62742 5.69306 132 206 173
0.94788 -0.66118 5.66799 100 151 142
0.96851 -0.47042 5.81685 122 66 229
1.04475 0.25023 6.40097 161 91 249
1.07968 0.56526 6.64137 136 123 213
1.08817 0.63527 6.74226 175 81 175
0.98748 -0.44186 5.88982 142 93 202
1.00014 -0.31701 5.99233 149 135 249
1.00014 -0.31701 5.99233 149 135 249
0.97477 -0.60729 5.75615 167 175 188
1.00002 -0.40475 5.94104 130 121 184
1.04587 -0.02695 6.25294 195 195 255
1.11591 0.63633 6.80092 255 234 255
1.13786 0.76329 6.92513 167 104 159
1.04848 -0.23571 6.15206 236 91 222
1.08274 0.00589 6.37654 68 186 222
1.08274 0.00589 6.37654 68 186 222
1.01479 -0.65225 5.84023 84 169 208
1.02780 -0.56201 5.93234 117 157 209
1.11878 0.20160 6.57751 67 174 244
1.01661 -1.00921 6.16905 138 220 172
1.06075 -0.54216 6.03102 88 111 161
1.06055 -0.59653 6.00280 88 122 121
1.05567 -0.64322 5.97863 163 152 246
1.03399 -0.84105 5.79369 152 120 99
1.17138 0.33999 6.78472 80 170 168
1.12279 -0.13128 6.40620 82 208 36
1.11425 -0.25527 6.31539 68 242 95
1.14415 -0.00105 6.54635 144 253 255
1.16696 0.19728 6.71198 110 238 249
1.13377 -0.23902 6.38241 86 202 53
1.07778 -0.82855 5.92038 92 153 146
1.07778 -0.82855 5.92038 92 153 146
1.13819 -0.58622 6.21017 217 124 195
1.17917 -0.42912 6.56895 252 238 209
1.11217 -0.99914 6.09165 250 254 71
1.16888 -0.52164 6.32028 248 244 180
1.16394 -0.58963 6.26155 236 198 223
1.13806 -0.85345 6.07668 130 125 122
1.25043 -0.31340 6.64025 185 255 245
1.18205 -0.84669 6.17822 161 167 141
1.20347 -0.75536 6.26571 210 202 129
-1.04955 -0.20463 5.63954 156 222 221
-1.01150 -0.28811 5.56782 168 241 234
-0.90683 -0.16348 5.56656 178 201 191
-1.02196 0.57807 6.07407 161 212 169
-0.91641 -0.70918 5.58404 221 130 83
-0.68813 -0.25936 5.35991 231 244 255
-0.86733 0.98583 6.21258 227 94 209
-0.65016 -0.17966 5.36582 252 237 255
-0.60192 -0.49545 5.19887 94 74 251
-0.60573 -0.54456 5.29004 107 74 227
-0.91537 -0.81542 5.89833 127 122 119
-0.56198 0.69298 5.81905 176 39 231
-0.56198 0.69298 5.81905 176 39 231
-0.54954 1.02005 5.98019 206 117 233
-0.46403 0.28802 5.52526 191 74 191
-0.36070 -0.37829 5.05900 129 133 255
-0.37679 -0.17124 5.19361 174 135 244
-0.38631 0.09478 5.34647 179 141 242
-0.45671 0.93663 5.88479 227 221 255
-0.37103 0.29005 5.45662 223 205 231
-0.33992 0.39352 5.46605 181 151 151
-0.33247 0.74777 5.69144 157 119 134
-0.78704 -0.85945 5.99095 81 52 162
-0.12253 -0.31853 4.92829 143 91 202
-0.33367 -0.56974 5.30950 227 230 239
-0.09225 -0.35946 4.90165 84 150 236
-0.75216 -0.93829 6.12788 141 122 250
-0.07664 -0.35647 4.88068 84 150 236
-0.07802 0.04883 5.11608 187 100 179
-0.09280 0.64352 5.45999 210 148 255
-0.01637 0.16726 5.13664 246 139 211
0.03179 0.34002 5.20382 202 163 184
0.03777 0.54557 5.31025 255 251 255
-0.14553 -0.55728 5.22038 243 249 213
-0.43565 -0.79306 5.80783 244 161 177
0.01115 1.19558 5.70545 69 117 91
0.11283 0.57318 5.25812 228 245 255
0.05852 -0.41127 4.90842 252 238 211
-0.51597 -0.91745 6.06641 202 233 189
-0.08068 -0.54646 5.21203 249 255 199
0.18135 1.34822 5.64867 40 38 43
0.19066 1.34132 5.63131 40 38 43
0.22301 1.33028 5.63253 183 93 154
0.24164 1.34807 5.60142 40 32 45
-0.40524 -0.94259 6.11730 255 232 255
0.25813 0.83856 5.33376 120 255 180
0.25813 0.83856 5.33376 120 255 180
0.27474 1.33223 5.58620 173 70 126
0.30849 -0.21644 4.68941 4 17 122
0.31455 -0.32011 4.66208 179 83 147
-0.31576 -0.90425 6.02269 244 253 255
0.35590 -0.15201 4.70336 77 225 237
0.35768 0.60635 5.12941 123 207 145
0.12296 -0.52584 5.15555 255 233 207
-0.35130 -0.98675 6.21125 205 128 234
0.45646 0.87979 5.23484 168 121 173
0.46032 0.61985 5.09244 168 169 164
0.44836 0.81646 5.25105 163 141 213
0.45914 0.54222 5.08214 171 206 102
0.46012 0.38511 4.99377 141 178 98
0.47025 1.15599 5.43694 241 255 255
0.47263 0.79130 5.25370 156 141 200
0.47977 0.20022 4.91282 218 252 139
0.47623 0.95578 5.36164 120 31 61
0.48363 -0.04420 4.80022 244 181 208
0.48563 0.09187 4.87636 239 229 170
0.48508 0.81160 5.30074 136 117 162
0.48895 0.80911 5.29312 136 117 162
0.49365 1.13553 5.47381 228 255 255
0.48602 -0.18456 4.73218 205 217 239
-0.25693 -1.07975 6.41312 204 129 196
0.49316 0.48790 5.12996 118 127 124
0.48500 -0.11911 4.79853 125 142 224
0.02789 -0.80243 5.74786 126 116 177
0.50257 0.97974 5.40983 101 164 173
0.49497 -0.00593 4.85719 227 192 196
0.49609 0.53794 5.18474 165 143 164
0.50031 0.35261 5.06352 195 182 68
0.51269 0.43869 5.09156 130 171 115
0.49978 0.96159 5.44251 244 255 255
0.50557 1.00349 5.45619 216 255 254
0.48253 0.63956 5.32162 118 76 139
0.13392 -0.72223 5.56047 236 235 205
0.49753 0.01627 4.92729 213 236 207
-0.08494 -0.94718 6.10614 189 105 227
0.51295 0.92813 5.44199 93 132 165
0.52775 1.14169 5.52945 97 187 178
0.51887 1.01959 5.49045 91 216 222
0.51855 0.97822 5.46882 98 188 186
-0.15218 -1.03769 6.28834 210 167 195
0.52870 1.04071 5.50996 213 255 254
0.51267 -0.25958 4.77329 234 222 236
0.52207 0.40832 5.15503 114 130 130
0.46560 -0.39918 4.84017 195 123 147
0.52610 0.63019 5.28876 139 119 94
0.52431 0.50605 5.22205 126 83 128
0.53277 1.00402 5.51081 237 255 255
0.53407 1.11016 5.57341 210 255 253
0.52339 0.28236 5.10006 115 102 60
0.53973 1.03316 5.53840 94 235 219
0.52462 -0.19304 4.83560 215 185 245
0.54045 0.98467 5.53133 127 197 189
0.54164 0.94107 5.50263 143 177 186
0.53526 0.40239 5.19236 138 163 121
0.13407 -0.79491 5.74288 130 87 94
0.54140 0.30342 5.15786 109 83 60
-0.02744 -0.98256 6.14139 176 108 193
0.55136 0.92256 5.52642 248 255 255
0.54349 0.10100 5.04042 152 151 167
0.54349 0.10100 5.04042 152 151 167
0.54895 0.27692 5.14493 102 86 70
0.54895 0.27692 5.14493 102 86 70
0.56036 0.76955 5.42562 125 76 121
0.55676 0.68484 5.38462 145 132 126
0.54687 0.21581 5.13179 204 172 115
0.55699 0.70722 5.41083 253 235 247
0.54242 -0.22383 4.87067 244 197 213
0.06197 -0.89262 5.97549 116 142 155
-0.08802 -1.07018 6.35315 220 158 255
0.50147 -0.42901 4.89359 124 149 117
0.56289 0.37496 5.23307 109 255 174
0.57103 0.59457 5.36028 246 255 250
0.56120 0.12817 5.10509 160 174 187
0.56796 0.27989 5.19804 212 196 109
0.58164 0.98864 5.62474 106 218 159
0.56966 0.23463 5.17826 206 191 124
0.57480 0.38772 5.26339 130 248 187
0.58574 0.48079 5.31765 102 109 163
0.59273 1.00382 5.64830 85 197 159
0.56386 -0.36843 4.85318 255 198 207
0.58384 0.58795 5.41499 215 234 232
0.58670 0.62821 5.43912 88 89 109
0.59551 0.91760 5.61983 169 53 102
0.57623 -0.00803 5.08524 198 204 144
0.44738 -0.54703 5.16055 117 144 151
0.58696 -0.28575 4.87745 244 148 196
0.60384 1.20469 5.80441 145 129 166
0.59155 0.24513 5.22607 166 189 161
0.57900 -0.34221 4.88211 235 157 196
0.59217 0.44582 5.35990 230 230 254
0.60545 1.14709 5.77818 158 207 186
0.58530 -0.09837 5.02691 223 183 147
0.58570 -0.05362 5.05874 40 189 3
0.60381 0.42681 5.37468 98 110 148
0.61643 1.11654 5.79502 145 176 160
0.60593 0.39581 5.36286 158 185 132
0.61175 0.66102 5.53078 87 79 156
0.63327 1.19992 5.85662 199 166 135
0.61831 0.37788 5.37122 249 255 248
0.63402 1.12695 5.82635 178 198 137
0.62326 0.41553 5.38495 247 251 255
0.63106 0.92364 5.71121 175 162 188
0.62454 0.67774 5.56745 95 119 163
0.63393 0.56515 5.48582 202 188 187
0.62159 0.37774 5.41120 214 242 230
0.62620 0.39781 5.41271 144 166 164
0.62552 0.35367 5.38824 182 198 172
0.63280 0.54400 5.49429 248 243 240
0.61325 -0.27922 5.00835 234 226 153
0.63698 0.75801 5.64817 85 88 139
0.63100 0.30924 5.36113 210 197 178
0.64007 0.72013 5.62330 80 124 137
0.62824 0.22255 5.33445 95 210 207
0.64848 1.05770 5.84483 161 154 138
0.63556 0.26589 5.35892 181 248 177
0.64471 0.93975 5.79717 172 138 188
0.64829 1.12929 5.92329 179 171 108
0.63539 0.33642 5.42030 250 255 247
0.62426 -0.36721 4.98299 210 178 217
0.63094 -0.08205 5.16618 168 218 183
0.63753 0.06903 5.25147 153 225 151
0.63470 -0.05386 5.17744 137 200 189
0.65698 0.81180 5.71301 157 139 91
0.63299 -0.13907 5.13471 184 191 183
0.66218 0.77289 5.70280 153 146 120
0.66645 1.03969 5.88276 225 202 126
0.65906 0.59522 5.60120 94 160 156
0.66001 0.66759 5.65054 107 163 248
0.66562 0.89178 5.79306 221 183 138
0.66685 0.85663 5.77144 191 143 141
0.64292 -0.35678 5.03831 173 141 182
0.66976 0.53152 5.58550 72 177 137
0.67344 0.53104 5.57788 72 177 137
0.67356 0.38949 5.49564 64 110 133
0.28761 -0.92982 5.98379 123 140 194
0.65508 -0.26726 5.12195 150 135 158
0.31881 -0.87314 5.91715 40 108 217
0.65905 -0.36680 5.06577 200 173 192
0.67776 0.27277 5.46935 219 255 222
0.68252 0.50121 5.62979 99 190 131
0.70491 1.06932 5.96234 215 189 102
0.67439 0.24218 5.48917 244 255 243
0.67385 -0.10991 5.25311 166 159 153
0.66843 -0.45954 5.04319 207 182 186
0.70720 0.83281 5.85317 191 145 121
0.70720 0.83281 5.85317 191 145 121
0.68631 -0.03125 5.32243 209 222 179
0.68898 0.21852 5.49890 144 250 152
0.67460 -0.44325 5.06615 199 204 200
0.72148 1.03033 5.99032 232 209 139
0.70759 0.27446 5.52201 172 215 188
0.72071 0.76352 5.84496 113 126 161
0.72698 0.82878 5.88609 191 91 103
0.70877 0.29263 5.57471 243 255 253
0.63565 -0.56756 5.22363 99 186 131
0.69648 -0.29682 5.20120 154 131 177
0.70570 -0.00300 5.38899 200 244 247
0.70992 0.16844 5.50658 120 255 153
0.71854 0.22784 5.54983 160 233 177
0.74352 0.76979 5.87993 116 83 130
0.35459 -0.95671 6.07988 50 107 162
0.62509 -0.63012 5.29251 142 233 102
0.74939 1.10464 6.14821 218 122 108
0.75297 1.02256 6.07170 218 152 154
0.75297 1.02256 6.07170 218 152 154
0.70981 -0.25963 5.25495 136 146 205
0.72953 0.24718 5.58519 246 253 255
0.70941 -0.33850 5.21201 185 126 234
0.72406 -0.17360 5.29611 155 239 215
0.71880 -0.09477 5.38260 190 200 201
0.72357 0.38022 5.75737 98 252 6
0.66362 -0.60855 5.26932 7 34 103
0.77053 1.00265 6.11591 174 104 114
0.73039 -0.03022 5.46859 214 213 244
0.75578 0.22299 5.62842 141 187 249
0.77539 0.70763 5.95353 228 113 118
0.73156 -0.48922 5.18777 134 154 181
0.77929 0.77931 6.01368 219 109 84
0.73471 -0.45937 5.21214 133 121 161
0.73878 -0.42713 5.25324 149 151 200
0.73878 -0.42713 5.25324 149 151 200
0.75881 -0.08129 5.46001 158 155 236
0.76127 0.01852 5.53926 185 165 236
0.74840 -0.25030 5.38210 125 196 248
0.80161 0.95471 6.15261 255 128 115
0.77671 0.18124 5.67548 130 141 249
0.79573 0.56009 5.92575 164 129 125
0.78212 0.10224 5.61430 178 173 255
0.77572 -0.06537 5.52252 144 147 254
0.29015 -1.20406 6.64203 158 178 179
0.75830 -0.53163 5.22818 86 102 179
0.79628 0.42174 5.86512 121 97 149
0.79880 0.26460 5.78011 135 114 189
0.81073 0.46312 5.90594 164 89 154
0.76965 -0.50105 5.27859 105 147 161
0.80431 0.30418 5.81175 146 125 192
0.82497 0.73081 6.08826 151 190 145
0.76204 -0.31722 5.48272 153 159 211
0.80224 0.21511 5.76163 130 190 240
0.82359 0.65710 6.05663 188 131 137
0.80786 0.34618 5.87297 122 84 133
0.78605 -0.30600 5.41640 142 153 219
0.78605 -0.30600 5.41640 142 153 219
0.80390 0.01260 5.63738 221 209 255
0.81113 0.12277 5.70711 143 195 245
0.78535 -0.48940 5.33115 100 149 156
0.83813 0.42229 5.94011 140 76 190
0.80709 -0.18247 5.57125 76 62 113
0.83607 0.27619 5.86229 195 127 200
0.80937 -0.30450 5.49351 143 147 236
0.85318 0.09971 5.71300 123 7 10
0.85153 0.26632 5.91491 149 131 205
0.88027 0.83495 6.30015 255 243 255
0.84657 0.04581 5.76629 169 182 250
0.85929 0.29278 5.93624 130 129 231
0.83900 -0.12775 5.66089 191 132 216
0.87733 0.65726 6.21455 169 54 87
0.83466 -0.29400 5.57165 149 125 235
0.83489 -0.42852 5.47255 77 97 148
0.83527 -0.40089 5.50020 109 129 198
0.89904 0.77046 6.30705 255 232 255
0.83108 -0.63233 5.34517 132 193 177
0.85090 -0.19431 5.66541 252 210 64
0.83133 -0.60985 5.37817 99 172 161
0.47522 -1.21086 6.53576 217 119 176
0.84706 -0.38109 5.54531 124 87 201
0.80270 -0.70058 5.47436 166 164 55
0.87782 0.10951 5.88516 197 108 224
0.91808 0.75230 6.33117 109 26 178
0.91808 0.75230 6.33117 109 26 178
0.89683 0.28558 6.00804 117 111 245
0.89109 0.19560 5.95147 238 207 150
0.89109 0.19560 5.95147 238 207 150
0.93075 0.89515 6.44398 232 101 177
0.92279 0.66516 6.32255 255 197 255
0.92279 0.66516 6.32255 255 197 255
0.93347 0.72401 6.37104 255 238 252
0.88100 -0.19972 5.74541 174 128 200
0.94231 0.65558 6.31195 246 249 254
0.90573 0.06379 5.92198 206 125 181
0.89370 -0.24366 5.73719 255 249 253
0.93596 0.35565 6.13203 132 91 213
0.90617 -0.19944 5.75826 255 252 255
0.56163 -1.18747 6.52050 233 167 205
0.88124 -0.53824 5.55624 130 143 115
0.95673 0.65040 6.37000 202 211 192
0.91286 -0.28122 5.77735 250 248 255
0.98261 0.73635 6.46726 251 34 164
0.96561 0.50263 6.32475 154 71 211
0.95382 0.18704 6.08915 181 109 255
0.99624 0.77784 6.55667 249 34 151
0.90655 -0.68537 5.53013 81 181 155
0.97690 0.42261 6.31436 164 75 243
0.93207 -0.32137 5.79026 77 17 226
0.99671 0.67832 6.48661 235 103 143
0.98401 0.34232 6.24586 237 151 238
0.95419 -0.11930 5.96014 181 101 255
0.95079 -0.23243 5.86045 222 226 255
0.93561 -0.46412 5.72603 85 59 230
0.92866 -0.58536 5.64540 67 210 102
0.95665 -0.15246 5.95758 157 81 251
0.95500 -0.30197 5.85819 84 54 210
0.98032 0.06979 6.13497 176 59 249
1.00922 0.49429 6.43893 184 72 236
0.98719 0.12080 6.17831 199 72 247
1.03708 0.85197 6.69337 217 118 164
0.97443 -0.08098 6.03468 135 60 248
0.96112 -0.28143 5.90137 249 248 255
1.02299 0.57942 6.50980 179 42 184
1.02909 0.68051 6.58802 191 129 150
0.99987 0.14610 6.21787 201 119 230
0.96895 -0.35145 5.89524 78 15 226
1.00784 0.09316 6.22428 217 131 218
1.04664 0.60662 6.59791 148 67 159
0.99706 -0.13763 6.06169 160 48 246
1.04983 0.66425 6.65937 138 101 142
1.00591 -0.09208 6.08419 80 187 55
1.05124 0.54599 6.58945 117 58 200
0.99004 -0.36612 5.92135 134 126 203
0.80896 -1.05457 6.21538 158 192 165
1.05236 0.37075 6.45611 202 169 212
0.98494 -0.57659 5.77050 138 159 212
1.00706 -0.27368 6.00838 180 90 247
0.98873 -0.52094 5.83450 108 74 195
1.02872 0.04930 6.26892 206 144 217
1.09063 0.76956 6.74490 158 128 156
1.01734 -0.23166 6.07381 197 89 252
1.00241 -0.50451 5.87156 124 115 208
1.08486 0.66400 6.74504 252 197 252
1.08486 0.66400 6.74504 252 197 252
1.06800 0.36888 6.52180 160 160 220
1.02487 -0.26942 6.04878 248 120 255
1.02487 -0.26942 6.04878 248 120 255
1.08840 0.63592 6.74162 175 72 181
1.08146 0.49068 6.62271 108 159 225
1.01655 -0.35520 6.01863 114 101 183
1.08563 0.53994 6.65752 93 124 191
1.06578 0.23451 6.44871 166 159 255
1.11420 0.74309 6.83409 164 84 145
1.02733 -0.43076 5.97932 134 139 181
1.03072 -0.40579 6.01457 116 104 140
1.02827 -0.46611 5.97133 91 113 170
1.04296 -0.28712 6.10231 207 101 237
1.09244 0.21521 6.47043 122 147 250
1.11163 0.47315 6.69029 88 192 229
1.09520 0.09452 6.41892 194 221 250
1.14776 0.71311 6.88355 170 67 136
1.07278 -0.17444 6.25904 234 175 221
1.03183 -0.77282 5.80036 133 127 173
1.06023 -0.37062 6.13485 216 202 31
1.07136 -0.26328 6.21433 255 148 209
1.10208 0.01570 6.40832 152 219 246
1.09086 -0.11329 6.32164 225 230 236
1.04502 -0.87831 5.81594 232 180 71
1.15607 0.39805 6.75533 69 174 177
1.00822 -0.94491 5.99352 234 228 108
1.05243 -0.84890 5.83152 129 188 140
1.12726 -0.02102 6.44936 177 175 212
1.12726 -0.02102 6.44936 177 175 212
1.06099 -0.80412 5.86229 119 197 145
1.08239 -0.56583 6.04365 156 145 162
1.18505 0.57069 6.87265 100 115 120
1.15430 0.23105 6.65595 80 201 228
0.98494 -1.01915 6.15968 234 255 236
1.15081 0.15583 6.62547 71 184 250
1.07318 -0.79553 5.91445 106 204 157
1.09578 -0.59630 6.06164 166 97 152
1.20869 0.68469 7.03533 57 148 71
1.17526 0.29950 6.76240 92 191 197
1.12638 -0.32661 6.26346 226 191 195
1.20546 0.51660 6.92707 66 112 102
1.20949 0.55428 6.97900 106 113 119
1.16356 0.02891 6.63132 113 255 255
1.22304 0.64731 7.07026 63 142 123
1.11665 -0.57204 6.14648 216 142 229
1.22164 0.59368 7.03385 37 94 88
1.11297 -0.66493 6.06912 165 86 117
1.19611 0.26127 6.80072 43 159 208
1.22142 0.53171 7.01173 70 88 128
1.12983 -0.52213 6.20680 190 141 72
1.14336 -0.40461 6.29972 232 149 191
1.10772 -0.82789 5.97547 137 184 168
1.11398 -0.77799 6.01745 107 152 157
1.21584 0.25935 6.84468 45 148 207
1.14407 -0.55296 6.22665 219 184 216
1.25143 0.56816 7.11466 39 90 117
1.16441 -0.39781 6.35030 250 204 243
1.12830 -0.78575 6.05555 135 186 169
1.23596 0.40001 6.99551 91 130 185
1.24738 0.50049 7.06600 68 88 159
1.14662 -0.65011 6.16963 252 155 138
1.12767 -0.87446 6.01001 165 157 155
1.25738 0.36055 7.02252 137 160 192
1.20646 -0.24848 6.54629 83 46 54
1.27282 0.42995 7.08436 129 123 193
1.17921 -0.62480 6.26744 207 164 183
1.23542 -0.13298 6.68963 144 225 252
1.20373 -0.48711 6.40693 253 242 210
1.16568 -0.92779 6.08453 227 175 100
1.24889 -0.12498 6.78407 169 236 253
1.29561 0.17108 6.94160 40 40 42
1.29481 0.09668 6.89618 39 40 42
1.27839 -0.23749 6.73242 39 41 40
1.22148 -0.76642 6.34635 186 177 100
1.21840 -0.95042 6.17871 154 97 77
1.27634 -0.45170 6.60097 39 39 39
1.22600 -0.89685 6.28235 167 136 90
1.22600 -0.89685 6.28235 167 136 90
1.27563 -0.58609 6.51359 40 41 45
1.27198 -0.65516 6.48081 38 39 41
1.23831 -0.95485 6.25851 178 127 110
1.24485 -1.00822 6.24650 157 105 117
-0.65912 -0.52479 5.29489 89 69 246
-0.82451 -0.60183 5.49432 195 184 218
-0.47438 0.63191 5.76624 192 203 101
-0.86548 -0.77518 5.84129 201 188 156
-0.38941 -0.66365 5.56138 204 134 168
0.03536 -0.45243 5.06064 248 207 189
0.31385 -0.33124 4.73175 163 116 158
0.26921 -0.37954 4.82757 103 136 169
0.42184 0.70142 5.19397 125 56 173
0.33444 -0.34075 4.80332 169 89 178
0.45422 0.12903 4.87432 249 220 178
0.44139 0.81954 5.26375 163 143 212
0.42217 1.34976 5.59079 152 228 254
0.46229 0.62341 5.15740 148 159 177
0.46510 1.31718 5.53090 152 228 254
-0.18182 -0.66132 5.57039 251 49 61
0.47280 1.13675 5.46437 113 184 206
0.47280 1.13675 5.46437 113 184 206
0.48603 0.05095 4.87370 194 181 173
0.48661 -0.03785 4.84817 255 205 168
0.48832 -0.00309 4.86950 220 187 194
0.48832 -0.00309 4.86950 220 187 194
0.48800 0.02222 4.88656 224 224 186
0.49441 0.44443 5.10388 149 166 112
0.49373 0.92124 5.36543 161 168 212
0.26927 -0.45178 5.00924 186 199 190
0.49137 0.61596 5.21199 117 78 123
0.49801 0.77653 5.30482 255 253 255
0.48884 1.10086 5.49919 97 239 201
0.50562 -0.04317 4.87906 250 191 177
0.50291 -0.18346 4.80885 211 214 247
0.50780 0.74808 5.31695 189 206 190
0.51265 -0.08254 4.87845 250 230 159
0.15542 -0.56642 5.25582 218 255 224
0.51835 0.57014 5.25981 135 74 133
0.51835 0.57014 5.25981 135 74 133
-0.07926 -0.70785 5.58952 106 30 68
0.52543 -0.27087 4.81160 248 222 205
0.39332 -0.42988 4.95282 165 191 190
-0.44435 -0.91664 6.12530 255 240 239
0.52585 -0.04489 4.93821 204 198 172
0.52814 0.04427 4.99218 199 185 174
0.53762 0.43859 5.20164 115 102 120
0.53028 0.73536 5.38224 136 115 112
0.52909 1.15786 5.62401 77 214 162
0.53436 0.53839 5.28594 143 140 131
-0.04355 -0.70601 5.61147 22 191 158
-0.04355 -0.70601 5.61147 22 191 158
0.53834 0.25443 5.14165 144 127 107
-0.13627 -0.77392 5.74668 243 189 119
0.54578 -0.14346 4.91560 217 156 215
0.54462 0.14111 5.08161 192 191 186
0.55584 0.73531 5.41259 240 235 242
0.55584 0.73531 5.41259 240 235 242
0.55288 0.25142 5.15571 253 255 241
0.55553 1.14075 5.65395 98 252 216
0.56207 0.94715 5.55599 115 164 158
0.57697 0.01506 5.02040 203 181 158
0.55835 0.73993 5.46469 235 203 244
0.57723 1.20154 5.71116 103 162 228
0.56679 0.95068 5.59121 136 160 147
0.56594 0.25904 5.20333 254 248 214
0.57306 0.45891 5.31317 247 247 255
0.57410 0.57607 5.38916 106 167 107
0.57346 0.51885 5.36109 249 251 255
0.58017 0.74593 5.47991 99 50 157
-0.00438 -0.75457 5.68056 255 243 243
0.57882 0.27423 5.23128 245 251 247
0.58000 0.43711 5.33527 134 164 130
0.58549 0.52058 5.37897 92 128 140
0.58775 0.70876 5.49789 123 83 169
0.59109 1.03741 5.68309 110 246 210
-0.29007 -0.95596 6.16736 227 185 49
0.59445 0.40803 5.34563 127 243 162
0.59711 0.96294 5.69251 130 140 167
-0.17969 -0.89931 6.03651 190 94 158
0.18251 -0.69075 5.53170 163 190 157
0.60346 -0.18809 5.04796 238 171 145
0.60717 0.19198 5.27884 145 251 185
0.60884 0.04604 5.19159 174 184 185
0.62030 -0.23768 5.00374 234 195 152
0.61909 0.41651 5.39332 251 251 255
0.61915 0.48032 5.44685 231 240 247
0.61998 0.47996 5.44567 231 240 247
0.61817 1.16529 5.85610 165 150 131
0.61817 1.16529 5.85610 165 150 131
0.62572 1.07368 5.78958 150 208 168
0.62591 1.00232 5.74955 120 171 198
0.62603 0.52110 5.47023 107 166 118
0.62603 0.52110 5.47023 107 166 118
0.61282 -0.32856 4.99651 193 164 186
-0.10849 -0.05258 6.52228 136 214 214
-0.10849 -0.05258 6.52228 136 214 214
-0.10849 -0.05258 6.52228 136 214 214
0.18145 -0.69076 5.60972 165 152 146
0.64258 1.00095 5.76129 144 139 161
0.64115 0.98864 5.78072 158 131 148
-0.06723 -0.89440 6.01081 198 120 146
0.63251 0.07088 5.26199 147 223 161
0.64944 0.84910 5.73291 211 179 138
-0.13946 -0.95171 6.15855 241 202 255
0.44118 -0.59719 5.25977 76 179 96
0.64859 0.00892 5.25392 185 255 218
0.48564 -0.57797 5.22050 239 255 253
0.65601 0.17846 5.35949 146 255 200
0.65816 0.10817 5.32692 142 240 189
0.66215 0.28074 5.42865 251 255 255
0.67009 0.60948 5.63266 106 166 238
0.65795 -0.15294 5.20964 157 148 169
0.66839 0.31707 5.48358 242 255 250
0.66477 0.06808 5.33735 134 187 203
0.66915 0.26979 5.45913 211 248 207
0.66497 0.29280 5.49133 246 255 249
0.68231 0.72255 5.72974 133 155 93
0.10120 -0.85281 5.90843 129 66 155
0.67686 0.01181 5.32254 200 249 219
0.67330 -0.10809 5.25511 172 159 153
0.66794 -0.18548 5.22552 114 131 183
0.67578 -0.15023 5.23570 188 186 161
0.69305 0.78689 5.78744 123 113 111
0.67198 -0.22925 5.19990 153 188 194
0.68685 0.45825 5.60269 90 140 137
0.68816 0.31684 5.51198 225 255 231
0.49133 -0.60558 5.33970 119 204 147
0.70226 0.72512 5.75703 81 105 71
0.65421 0.12237 5.47519 150 250 200
0.69100 0.59810 5.70233 57 144 110
0.68231 -0.29795 5.19310 140 118 203
0.70879 0.01788 5.35567 249 255 255
0.69520 -0.24977 5.23254 104 107 186
0.69520 -0.24977 5.23254 104 107 186
0.69269 -0.35868 5.16903 154 129 230
0.69269 -0.35868 5.16903 154 129 230
0.59773 -0.58454 5.24610 214 250 236
0.72086 0.50804 5.69903 83 142 122
0.72272 0.55830 5.72749 64 152 154
0.71918 0.22820 5.54867 170 227 182
0.71646 0.23532 5.56080 192 236 203
0.73916 1.03418 6.02916 212 144 125
0.70685 -0.33806 5.21753 188 123 227
0.73097 0.27140 5.59852 255 238 255
0.76206 0.57918 5.74529 56 102 115
0.73845 0.57588 5.79294 71 132 150
0.73142 0.01705 5.45765 179 212 255
0.03415 -0.97295 6.26793 132 93 208
0.75549 0.88758 5.99013 194 98 76
0.76363 0.95313 6.03706 162 173 157
0.74708 0.19102 5.60089 164 170 232
0.75100 0.11305 5.57407 193 233 224
0.42394 -0.77998 5.69032 90 81 110
0.75987 -0.08010 5.45837 165 168 237
0.75747 -0.05904 5.48186 254 246 255
0.75747 -0.05904 5.48186 254 246 255
0.76612 0.16139 5.62024 143 157 254
0.77681 0.78143 6.02022 213 115 86
0.78438 0.67519 5.95381 184 97 129
0.76465 -0.02943 5.52363 249 247 255
0.47192 -0.76995 5.66156 234 247 237
0.75459 -0.40679 5.30118 123 114 167
0.78262 0.33379 5.76316 144 152 165
0.85780 1.15003 6.15615 40 40 40
0.80095 0.67486 5.98260 194 135 131
0.77628 -0.24077 5.43436 95 191 252
0.81994 1.04071 6.22922 252 112 89
0.78726 0.12355 5.68286 160 158 255
0.78646 -0.21517 5.48617 109 171 254
0.81667 0.43048 5.89186 199 173 24
0.78505 -0.52683 5.30949 84 111 140
0.79344 -0.25912 5.48101 120 139 218
0.79798 -0.39612 5.41649 120 7 157
0.81325 -0.25429 5.52497 155 176 255
0.85832 0.78159 6.16596 247 120 187
0.87990 0.89786 6.20375 255 160 122
0.85603 0.70048 6.15381 179 29 64
0.84667 0.36137 5.93806 205 156 211
0.86998 0.30587 5.84957 124 97 178
0.88614 0.98238 6.32942 246 167 110
0.86284 0.57859 6.10109 217 83 120
0.82700 -0.45472 5.45813 87 136 169
0.82387 -0.58193 5.40358 120 190 162
0.88027 0.50397 6.08780 228 80 142
0.91626 0.93987 6.40931 248 158 167
0.89344 0.62704 6.23852 255 251 255
0.92798 0.93129 6.38648 248 158 167
0.85742 -0.45898 5.52930 115 148 189
0.85226 -0.57846 5.46495 149 197 159
0.91179 0.68044 6.27057 255 218 255
0.91179 0.68044 6.27057 255 218 255
0.92252 0.83999 6.37381 246 109 151
0.90168 0.32901 6.05915 131 121 234
0.91719 0.72936 6.32989 255 227 255
0.42996 -1.02677 6.24201 219 247 189
0.90187 0.04014 5.89247 187 129 56
0.87340 -0.50880 5.58519 116 175 205
0.87680 -0.58132 5.54590 116 181 141
0.94411 0.74992 6.40216 235 76 168
0.95306 0.77481 6.40257 255 212 246
0.38663 -1.09434 6.38975 199 88 141
0.92443 0.20680 6.04800 171 86 216
0.92664 0.27812 6.12091 143 158 249
0.95064 0.63259 6.34205 45 217 83
0.91307 -0.15763 5.83642 136 115 255
0.89292 -0.59540 5.56309 95 200 141
0.95859 0.65148 6.36575 205 255 219
0.91028 -0.34800 5.74472 144 113 251
0.95365 0.33321 6.17915 147 133 220
0.94726 0.13188 6.07876 216 85 249
0.70371 -0.89703 5.91765 251 179 139
0.89349 -0.73162 5.56261 43 102 74
0.94242 -0.08553 5.96602 195 47 243
0.94311 -0.16547 5.91398 147 111 255
0.65142 -0.94361 6.05724 226 155 109
0.98281 0.47519 6.34063 206 94 255
0.92098 -0.72179 5.55944 53 126 117
0.98325 0.17690 6.14978 166 114 241
0.99667 0.59576 6.45002 174 88 175
0.97485 0.11748 6.13531 198 103 255
1.02255 0.79466 6.55615 238 84 172
0.97534 -0.03249 6.05595 119 82 239
0.95613 -0.32660 5.88545 255 247 255
0.98052 0.03883 6.12671 194 106 252
1.04320 0.58889 6.53792 193 75 195
0.99012 -0.26329 5.98688 198 117 255
0.99012 -0.26329 5.98688 198 117 255
1.05799 0.81879 6.70170 168 95 114
1.03896 0.49936 6.49434 120 55 199
1.06281 0.73622 6.70270 193 168 187
1.06281 0.73622 6.70270 193 168 187
0.97734 -0.73620 5.71342 107 156 196
1.06593 0.62226 6.61813 161 108 190
1.00374 -0.36976 5.96122 85 88 193
0.98482 -0.80939 5.65624 219 152 110
1.02186 -0.05681 6.19071 79 188 61
1.06009 0.45971 6.52762 138 121 236
1.05835 0.43054 6.50997 143 108 210
1.08683 0.73955 6.70501 255 246 255
0.82479 -0.95530 6.03343 127 44 114
0.99589 -0.67377 5.79297 131 197 187
1.08691 0.81774 6.82389 156 151 148
1.05702 0.20504 6.39071 172 169 246
1.04661 0.10424 6.35164 185 121 60
0.87617 -0.91292 5.96327 253 215 88
0.87617 -0.91292 5.96327 253 215 88
1.07111 0.37077 6.51406 148 161 214
1.06434 0.28056 6.46973 139 106 249
0.94153 -0.86708 5.83535 242 148 50
1.09420 0.57414 6.66313 126 141 208
1.09420 0.57414 6.66313 126 141 208
1.01716 -0.60903 5.89521 69 154 191
1.10227 0.69067 6.78379 169 54 185
1.02684 -0.56656 5.91854 124 155 209
1.08141 0.27423 6.50127 133 152 244
1.04459 -0.24159 6.15751 232 92 217
1.10397 0.53188 6.68201 100 165 205
1.10397 0.53188 6.68201 100 165 205
1.09676 0.34380 6.58234 110 180 169
1.07168 -0.07797 6.28934 188 162 249
1.10152 0.26003 6.53269 116 132 219
1.13096 0.69288 6.83603 253 245 255
1.11188 0.38707 6.62447 91 198 206
1.11001 0.35666 6.61458 85 173 159
1.12431 0.60159 6.79145 126 87 142
1.05245 -0.50789 6.02756 119 160 239
1.14576 0.64461 6.82049 119 57 166
1.07596 -0.31799 6.20850 255 156 177
1.11381 0.15762 6.55651 95 172 254
1.11796 0.08252 6.50063 165 177 253
1.14512 0.46561 6.77096 80 188 156
1.14060 0.30948 6.67267 131 219 179
1.07739 -0.60911 6.03740 137 139 154
1.13728 0.15902 6.57212 97 192 255
1.12021 -0.06927 6.42256 190 253 255
1.18446 0.67947 6.97402 85 96 88
1.15093 0.12197 6.63451 113 242 255
1.11040 -0.43166 6.24119 216 162 136
1.11647 -0.40089 6.25714 234 181 173
1.17426 0.34882 6.79356 86 161 166
1.10970 -0.54631 6.16401 172 129 200
1.13115 -0.29846 6.34953 80 234 122
1.11172 -0.52913 6.19740 213 200 60
1.19726 0.35416 6.81944 104 184 145
1.09974 -0.83282 5.99680 134 185 170
1.10662 -0.73499 6.07094 172 168 156
1.04537 -0.95035 6.07058 247 226 121
1.22246 0.59730 7.03385 36 89 93
1.12718 -0.72251 6.11683 159 110 132
1.15664 -0.28904 6.44621 252 242 241
1.23935 0.65190 7.10224 31 118 125
1.22617 0.49857 7.01445 110 144 171
1.15119 -0.44995 6.33489 251 219 162
1.22198 0.36119 6.90439 85 145 146
1.13417 -0.80634 6.10277 134 148 151
1.17183 -0.38169 6.42203 248 184 236
1.15919 -0.56533 6.29095 214 186 175
1.22820 -0.01966 6.74855 58 216 253
1.22820 -0.01966 6.74855 58 216 253
1.15678 -0.93530 6.10840 230 173 102
1.18903 -0.74967 6.22309 192 193 188
1.19986 -0.53804 6.41887 84 232 156
1.17606 -0.85895 6.17644 167 174 132
1.17212 -0.90630 6.15483 149 148 81
1.23905 -0.75629 6.38686 198 182 86
0.25872 1.31863 5.54762 39 40 42
0.45908 0.02835 4.80128 248 147 189
0.44073 1.09028 5.42338 220 255 255
0.48299 0.27542 4.98593 180 243 100
0.15636 -0.45920 4.97800 162 203 99
0.47079 0.99152 5.40671 255 252 255
0.23203 -0.45623 4.96245 183 205 193
0.48870 0.65006 5.24913 137 103 140
0.48870 0.65006 5.24913 137 103 140
0.48566 0.54514 5.20182 166 140 167
0.50795 -0.01529 4.89693 247 228 213
0.52143 -0.07766 4.85128 255 236 182
0.48718 1.14185 5.52744 103 182 186
0.48747 1.11247 5.52328 109 210 196
0.55271 -0.36261 4.70493 162 58 109
0.50389 0.46576 5.18094 146 143 150
0.50068 0.87977 5.41938 166 157 214
0.53446 -0.16396 4.85535 228 219 236
0.52072 0.28457 5.10637 106 91 68
0.52072 0.28457 5.10637 106 91 68
0.53239 -0.04566 4.93053 203 197 171
0.53239 -0.04566 4.93053 203 197 171
0.12268 -0.52861 5.13802 195 119 35
0.53119 0.37347 5.17964 137 139 89
0.54367 -0.22358 4.87104 253 193 218
0.54475 -0.22432 4.87008 253 193 218
0.54677 0.33600 5.16440 200 181 86
0.54677 0.33600 5.16440 200 181 86
0.52788 1.03350 5.55445 99 234 219
0.53051 0.69379 5.37908 248 248 240
0.54327 0.25425 5.13581 137 118 101
0.51985 1.15683 5.63524 74 216 158
0.54895 -0.01818 5.00258 250 237 135
0.54049 0.39710 5.22983 94 154 102
0.54218 0.74931 5.41667 254 254 254
0.53553 0.64454 5.37599 96 114 102
0.54747 0.44286 5.28005 128 246 170
0.53828 0.92611 5.54589 252 254 255
0.54251 0.97636 5.56880 238 255 253
0.55302 0.38111 5.24654 122 251 171
0.55595 0.72371 5.43737 138 107 123
0.56386 0.45720 5.28695 133 169 97
0.24374 -0.53923 5.13513 75 197 146
0.55925 0.34253 5.24130 139 132 54
0.55346 0.82007 5.50363 123 76 144
0.55525 0.99191 5.59758 79 201 162
0.56218 0.73591 5.45872 225 202 231
0.56762 0.09810 5.11372 147 141 177
0.55347 0.87214 5.55031 135 128 170
0.56084 1.02503 5.62588 106 255 182
0.58799 -0.18661 4.97323 209 171 212
0.57893 0.27916 5.23264 248 255 245
0.57340 0.22132 5.21094 248 255 247
0.58199 0.43668 5.33264 131 169 132
0.60159 -0.35596 4.90636 235 172 215
0.59952 -0.20330 5.00191 253 158 156
0.58267 1.15727 5.75819 121 176 197
0.58267 1.15727 5.75819 121 176 197
0.65300 1.31220 5.79254 40 40 40
0.59530 0.35449 5.34536 156 186 114
0.60872 0.55708 5.46312 251 253 248
0.61593 0.97508 5.72717 122 121 191
0.64223 -0.41821 4.96335 195 180 235
0.44265 -0.54855 5.13691 255 241 255
0.63621 -0.04962 5.17920 140 202 197
0.60961 -0.48050 5.00590 104 131 160
0.65513 0.18058 5.36132 150 255 199
0.38479 -0.60101 5.25915 103 207 144
0.46447 -0.56392 5.18241 230 255 242
0.65810 0.96972 5.81174 210 177 142
0.65636 0.66338 5.65147 102 160 255
0.66006 -0.13622 5.19780 148 145 154
0.44319 -0.58398 5.21868 103 165 126
0.65998 0.52722 5.58346 74 165 156
0.68278 0.40437 5.48770 56 115 121
0.66544 0.52781 5.58199 71 174 145
0.67317 -0.28819 5.14283 153 146 190
0.67317 -0.28819 5.14283 153 146 190
0.69220 0.07922 5.38605 152 247 241
0.69068 0.57065 5.67660 91 179 155
0.57153 -0.56899 5.19086 244 250 248
0.70369 0.61789 5.70722 61 158 107
0.69295 0.22366 5.49617 142 249 145
0.35254 -0.68053 5.42087 151 239 117
0.70188 -0.48099 5.09147 171 182 168
0.69999 0.41588 5.62914 93 254 2
0.71695 0.24550 5.51732 247 255 248
0.70297 0.00012 5.39243 195 239 240
0.70885 -0.28133 5.24550 138 98 212
0.73894 0.87041 5.91093 168 170 107
0.72223 -0.43977 5.16527 168 180 176
0.73824 0.29458 5.58596 122 126 164
0.73931 0.18176 5.57216 144 217 188
0.73550 -0.22220 5.34088 132 175 209
0.72752 0.30415 5.66759 100 246 23
0.74181 -0.16283 5.37525 117 233 230
0.76845 0.84472 6.01061 192 94 67
0.76053 0.02101 5.54238 182 166 237
0.76137 -0.18292 5.42506 112 191 255
0.76473 -0.04643 5.50512 152 147 231
0.76473 -0.04643 5.50512 152 147 231
0.78111 0.62908 5.91571 175 148 131
0.77424 0.54416 5.87391 133 116 124
0.77531 0.31126 5.73270 104 119 176
0.77834 0.14744 5.65521 160 193 255
0.77166 -0.31811 5.38980 173 192 248
0.80053 0.29151 5.73666 128 110 192
0.77872 -0.14429 5.50395 131 161 247
0.79406 0.47323 5.87213 149 112 130
0.79406 0.47323 5.87213 149 112 130
0.79760 0.71655 6.03533 156 106 157
0.78937 0.12376 5.67984 163 160 251
0.78685 -0.44576 5.34410 87 97 86
0.78685 -0.44576 5.34410 87 97 86
0.71962 -0.66287 5.35647 138 208 84
0.80786 -0.44308 5.41385 126 115 9
0.82109 -0.01098 5.68417 192 162 252
0.82109 -0.01098 5.68417 192 162 252
0.83481 -0.05347 5.67741 240 215 151
0.86527 0.60740 6.11064 248 126 115
0.87019 0.81684 6.24699 216 104 186
0.88453 0.72715 6.20112 172 31 73
0.89339 0.88071 6.29023 228 70 154
0.88353 0.77724 6.24025 255 247 255
0.88366 0.63311 6.17912 255 214 225
0.88366 0.63311 6.17912 255 214 225
0.88900 0.79514 6.28465 167 99 176
0.84924 -0.58077 5.44839 129 200 160
0.86603 0.07544 5.85800 123 9 8
0.87309 -0.09371 5.76746 218 121 228
0.88914 0.82204 6.34911 116 9 209
0.89780 0.67765 6.24639 197 130 181
0.89780 0.67765 6.24639 197 130 181
0.91097 0.81292 6.33390 110 12 209
0.90853 0.47881 6.18869 95 11 123
0.92347 0.66176 6.29210 219 75 207
0.95353 0.85518 6.44621 254 120 173
0.93091 0.38988 6.17674 165 112 202
0.90814 -0.15519 5.84532 132 118 253
0.92246 0.05086 5.96503 138 99 178
0.91185 -0.24860 5.78272 178 170 211
0.90770 -0.49832 5.62316 93 112 232
0.96117 0.79306 6.43103 248 66 141
0.92362 0.07584 6.00583 157 114 230
0.93589 -0.01447 5.96452 157 69 192
0.93993 -0.24970 5.83825 120 137 207
0.93993 -0.24970 5.83825 120 137 207
0.94760 -0.08449 5.95784 193 48 241
0.92521 -0.58928 5.65212 58 219 89
0.92543 -0.58975 5.65175 58 219 89
0.94943 -0.04188 6.00559 190 74 235
0.98152 0.51443 6.36412 53 209 100
0.95675 -0.20791 5.91187 132 103 255
0.95745 -0.20950 5.91066 132 103 255
0.95021 -0.27530 5.87875 232 241 255
0.72755 -0.85567 5.83933 255 162 131
0.97303 0.12090 6.13978 196 106 255
1.00214 0.67783 6.48407 238 106 146
0.93851 -0.69728 5.62985 85 172 156
0.99616 0.55114 6.41523 199 121 222
0.95452 -0.24881 5.92314 251 250 255
0.95452 -0.24881 5.92314 251 250 255
0.99565 0.49887 6.38795 145 72 206
1.01350 0.53449 6.43965 162 65 204
1.04323 0.85162 6.67776 219 119 157
1.04480 0.85192 6.67579 219 119 157
1.03926 0.78154 6.64566 209 101 127
1.02253 0.20315 6.32437 182 122 62
1.05749 0.70936 6.64673 175 115 125
1.01997 -0.14236 6.10481 148 71 239
1.01701 -0.23176 6.07663 199 89 248
0.86987 -0.88972 5.85176 240 150 54
1.08509 0.81655 6.73585 179 142 123
1.06127 0.51463 6.56209 130 116 195
1.06127 0.51463 6.56209 130 116 195
1.02269 -0.14043 6.16287 123 83 232
1.02487 -0.21707 6.11511 214 120 255
1.02487 -0.21707 6.11511 214 120 255
1.09772 0.73075 6.69741 243 230 248
1.07765 0.55978 6.60952 140 127 217
1.08467 0.68871 6.69905 174 95 160
1.03047 -0.30217 6.07079 191 97 219
1.07088 0.28116 6.45781 134 105 247
1.09218 0.54122 6.64257 97 115 191
1.02821 -0.46590 6.02112 101 110 169
1.05548 -0.15619 6.20874 219 173 235
1.08453 0.27533 6.49583 132 151 246
1.09174 0.30196 6.51924 119 128 205
1.12892 0.73820 6.80286 163 83 134
1.08953 0.15497 6.45968 143 187 250
1.10646 0.28498 6.56754 131 174 219
1.13250 0.43356 6.68384 73 168 188
1.08853 -0.16923 6.30142 242 223 217
1.13116 0.40103 6.67264 73 207 236
1.12245 0.21015 6.58123 67 174 246
1.12502 0.05457 6.46134 189 207 255
1.16818 0.67656 6.87064 112 66 105
1.09009 -0.20107 6.33330 83 206 37
1.06807 -0.64048 6.03490 143 115 129
1.10842 -0.10558 6.37828 84 207 38
1.10452 -0.20131 6.31473 83 206 37
1.14581 0.31221 6.66362 125 221 173
1.12627 -0.15006 6.38780 83 206 40
1.22394 0.70403 6.88556 130 107 113
1.16436 0.32013 6.72567 71 197 176
1.17513 0.49777 6.86298 39 138 94
1.15643 0.08151 6.59774 96 219 252
1.11869 -0.53161 6.18290 214 203 49
1.14252 -0.24126 6.36959 82 205 39
0.85028 -1.07090 6.27203 245 240 184
1.12902 -0.52521 6.21137 186 119 51
1.03051 -0.97577 6.04459 219 211 100
1.14146 -0.51063 6.26756 227 173 163
1.20307 0.26275 6.78874 47 164 217
1.12058 -0.88797 6.02543 165 161 150
0.99068 -1.05262 6.21948 137 220 174
1.03300 -1.02689 6.16699 246 251 70
1.14692 -0.81199 6.13982 150 179 175
1.15385 -0.74682 6.18333 190 171 175
1.15666 -0.74773 6.17936 190 171 175
1.20455 0.33662 6.98372 124 185 144
1.26905 0.42234 7.03353 108 111 188
1.26905 0.42234 7.03353 108 111 188
1.16971 -0.80756 6.22122 131 13 211
1.23496 -0.13098 6.69743 147 224 252
1.25076 0.03964 6.85241 91 255 218
1.29552 0.38348 7.07930 38 38 46
1.20842 -0.82676 6.26584 194 176 110
1.29239 0.14581 6.94366 39 39 39
1.28914 0.06942 6.90467 39 40 42
1.21082 -0.78550 6.34549 177 170 98
1.20650 -1.01029 6.19960 176 135 139
1.28292 -0.23952 6.72463 43 42 37
1.21817 -0.86047 6.32947 197 176 69
1.24018 -0.65868 6.46360 84 232 156
1.25599 -0.90510 6.36589 41 41 41
